<svg width="40.000000" height="40.000000" viewBox="0 0 40 40" fill="none" xmlns="http://www.w3.org/2000/svg" xmlns:xlink="http://www.w3.org/1999/xlink">
	<desc>
			Created with Pixso.
	</desc>
	<defs/>
	<path d="M36.5391 17.6113C36.3018 19.2559 35.7383 20.8193 34.9053 22.2559C34.9678 22.6123 35 22.9717 35 23.333C35 24.5879 34.6357 25.7891 33.9629 26.8799C33.626 27.4238 33.54 28.0625 33.5068 28.4844C33.4688 28.9668 33.4814 29.4961 33.5156 30.0039C33.5547 30.5732 33.625 31.1719 33.7051 31.7363C33.0547 31.5459 32.3496 31.3555 31.6768 31.2041C31.1162 31.0781 30.5439 30.9697 30.0254 30.917C29.5723 30.8701 28.9189 30.834 28.334 31.0225C27.0557 31.4355 25.6484 31.666 24.166 31.666C22.4033 31.666 20.7842 31.3535 19.3643 30.8096C19.0225 30.8252 18.6787 30.833 18.333 30.833C16.3252 30.833 14.3926 30.5693 12.585 30.0811C15.2129 33.1211 19.5459 35 24.166 35C25.9707 35 27.7031 34.7227 29.2998 34.2139C29.3027 34.2139 29.3076 34.2139 29.3154 34.2129C29.3564 34.2129 29.4697 34.21 29.6826 34.2324C30.0166 34.2666 30.4473 34.3438 30.9424 34.4561C31.9297 34.6787 33.0391 35.0068 33.9043 35.2812C35.7373 35.8633 37.5146 34.2637 37.1865 32.4023C37.0459 31.6016 36.8994 30.624 36.8418 29.7773C36.8125 29.3525 36.8096 29.0029 36.8301 28.7461C36.8379 28.6396 36.8486 28.5732 36.8555 28.5381C37.793 26.9844 38.333 25.2158 38.333 23.333C38.333 21.2109 37.6738 19.2725 36.5391 17.6113Z" fill="#FF5A30" fill-opacity="1.000000" fill-rule="evenodd"/>
	<path d="M9.32812 9.49707C7.08105 11.2148 5.83301 13.4697 5.83301 15.833C5.83301 17.0117 6.13965 18.1465 6.71484 19.2021C6.93457 19.6035 6.99609 20.0186 7.01855 20.2988C7.04297 20.6055 7.03027 20.9199 7.00391 21.2139C6.95117 21.8027 6.82324 22.4697 6.6709 23.127C6.49316 23.8965 6.26465 24.7158 6.03223 25.4863C6.91309 25.166 7.875 24.8379 8.78711 24.5723C9.52441 24.3564 10.2695 24.1699 10.9316 24.0654C11.5029 23.9756 12.3311 23.8867 13.0439 24.1328C14.6445 24.6865 16.4355 25 18.333 25C21.9111 25 25.0898 23.8887 27.3379 22.1689C29.584 20.4512 30.833 18.1963 30.833 15.833C30.833 13.4697 29.584 11.2148 27.3379 9.49707C25.0898 7.77734 21.9111 6.66602 18.333 6.66602C14.7539 6.66602 11.5762 7.77734 9.32812 9.49707ZM7.30273 6.84863C10.1816 4.64746 14.0869 3.33301 18.333 3.33301C22.5781 3.33301 26.4834 4.64746 29.3623 6.84863C32.2432 9.05176 34.166 12.2129 34.166 15.833C34.166 19.4531 32.2432 22.6143 29.3623 24.8174C26.4834 27.0186 22.5781 28.333 18.333 28.333C16.0938 28.333 13.9561 27.9678 12.0146 27.3037C12.0127 27.3096 11.8555 27.2939 11.4521 27.3574C10.9883 27.4316 10.3955 27.5752 9.7207 27.7715C8.37891 28.1631 6.87109 28.7178 5.72266 29.1641C3.7334 29.9385 1.70703 28.0283 2.37695 25.9932C2.73242 24.9141 3.15137 23.5508 3.42383 22.374C3.56152 21.7812 3.65137 21.2822 3.68457 20.9131C3.69629 20.7852 3.69922 20.6924 3.69824 20.6289C2.93164 19.1631 2.49902 17.542 2.49902 15.833C2.49902 12.2129 4.42188 9.05176 7.30273 6.84863ZM3.69238 20.5381C3.69336 20.5381 3.69336 20.542 3.69434 20.5518C3.69336 20.543 3.69238 20.5381 3.69238 20.5381Z" fill="#FF5A30" fill-opacity="1.000000" fill-rule="evenodd"/>
</svg>
