<svg width="148.000000" height="148.000000" viewBox="0 0 148 148" fill="none" xmlns="http://www.w3.org/2000/svg" xmlns:xlink="http://www.w3.org/1999/xlink">
	<desc>
			Created with Pixso.
	</desc>
	<defs>
		<clipPath id="clip2111_1789">
			<rect id="circle-progress" width="148.000000" height="148.000000" fill="white" fill-opacity="0"/>
		</clipPath>
	</defs>
	<g clip-path="url(#clip2111_1789)">
		<g opacity="0.300000">
			<circle id="ellipse" cx="74.000000" cy="74.000000" r="71.000000" stroke="#F52F6E" stroke-opacity="1.000000" stroke-width="6.000000"/>
		</g>
		<path id="ellipse" d="M142 74C142 111.555 111.556 142 74 142C36.4443 142 6 111.555 6 74L0 74C0 114.869 33.1309 148 74 148C114.869 148 148 114.869 148 74C148 33.1309 114.869 0 74 0L74 6C111.556 6 142 36.4453 142 74Z" fill="#F52F6E" fill-opacity="1.000000" fill-rule="evenodd"/>
		<path id="20" d="M71.199 69.6484Q71.199 70.8672 70.7146 71.9844Q70.2381 73.1016 69.4646 74.1484Q68.699 75.1875 67.7381 76.1484Q66.7771 77.1016 65.8552 77.9688Q65.3709 78.4141 64.8084 78.9766Q64.2537 79.5391 63.7381 80.1172Q63.2302 80.6875 62.824 81.1875Q62.4256 81.6797 62.3318 82L71.8709 82L71.8709 86L57.0818 86Q57.0193 85.6484 57.0193 85.1094Q57.0193 84.5625 57.0193 84.3359Q57.0193 82.7969 57.5115 81.5234Q58.0115 80.2422 58.8084 79.1406Q59.6131 78.0312 60.6209 77.0703Q61.6287 76.1094 62.6209 75.1484Q63.3865 74.4141 64.0584 73.7578Q64.7302 73.1016 65.2381 72.4844Q65.7537 71.8594 66.0427 71.2344Q66.3318 70.6094 66.3318 69.9688Q66.3318 68.5625 65.5271 67.9844Q64.7302 67.4062 63.5506 67.4062Q62.6834 67.4062 61.9334 67.6797Q61.1834 67.9531 60.5584 68.3203Q59.9334 68.6875 59.4802 69.0547Q59.0349 69.4219 58.8084 69.6484L56.4412 66.3203Q57.8552 65.0078 59.7224 64.1641Q61.5974 63.3125 63.7381 63.3125Q65.6912 63.3125 67.0974 63.7656Q68.5115 64.2109 69.4177 65.0312Q70.3318 65.8438 70.7615 67.0156Q71.199 68.1797 71.199 69.6484ZM90.5859 74.8672Q90.5859 80.4609 88.4531 83.4531Q86.3281 86.4453 82.5859 86.4453Q78.8438 86.4453 76.7109 83.4531Q74.5859 80.4609 74.5859 74.8672Q74.5859 72.0781 75.1484 69.9375Q75.7109 67.7891 76.7656 66.3203Q77.8203 64.8516 79.2891 64.0859Q80.7656 63.3125 82.5859 63.3125Q86.3281 63.3125 88.4531 66.3047Q90.5859 69.2969 90.5859 74.8672ZM85.7266 74.8672Q85.7266 73.2031 85.5625 71.8438Q85.4062 70.4766 85.0547 69.4844Q84.7031 68.4922 84.0938 67.9531Q83.4844 67.4062 82.5859 67.4062Q81.6953 67.4062 81.1016 67.9531Q80.5078 68.4922 80.1406 69.4844Q79.7734 70.4766 79.6094 71.8438Q79.4531 73.2031 79.4531 74.8672Q79.4531 76.5312 79.6094 77.9062Q79.7734 79.2812 80.1406 80.2734Q80.5078 81.2656 81.1016 81.8125Q81.6953 82.3516 82.5859 82.3516Q83.4844 82.3516 84.0938 81.8125Q84.7031 81.2656 85.0547 80.2734Q85.4062 79.2812 85.5625 77.9062Q85.7266 76.5312 85.7266 74.8672Z" fill="#1E212C" fill-opacity="1.000000" fill-rule="evenodd"/>
	</g>
</svg>
