<svg width="148.000000" height="148.000000" viewBox="0 0 148 148" fill="none" xmlns="http://www.w3.org/2000/svg" xmlns:xlink="http://www.w3.org/1999/xlink">
	<desc>
			Created with Pixso.
	</desc>
	<defs>
		<clipPath id="clip2111_1783">
			<rect id="circle-progress" width="148.000000" height="148.000000" fill="white" fill-opacity="0"/>
		</clipPath>
	</defs>
	<g clip-path="url(#clip2111_1783)">
		<g opacity="0.300000">
			<circle id="ellipse" cx="74.000000" cy="74.000000" r="71.000000" stroke="#5A87FC" stroke-opacity="1.000000" stroke-width="6.000000"/>
		</g>
		<path id="ellipse" d="M142 74C142 111.555 111.556 142 74 142C36.4443 142 6 111.555 6 74C6 63.0332 8.5957 52.6738 13.207 43.5L7.74707 41C2.78906 50.9355 0 62.1426 0 74C0 114.869 33.1309 148 74 148C114.869 148 148 114.869 148 74C148 33.1309 114.869 0 74 0L74 6C111.556 6 142 36.4453 142 74Z" fill="#5A87FC" fill-opacity="1.000000" fill-rule="evenodd"/>
		<path id="9452" d="M46.398 74.0938Q47.1324 74.0938 47.9292 73.9531Q48.7339 73.8047 49.1167 73.5547L49.1167 73.2656Q49.1167 73.1328 49.1324 73.0078Q49.148 72.8828 49.148 72.7812Q49.1167 71.6328 48.9527 70.625Q48.7964 69.6172 48.4136 68.8672Q48.0308 68.1094 47.3746 67.6797Q46.7183 67.25 45.7574 67.25Q44.9917 67.25 44.4136 67.5703Q43.8355 67.8906 43.4839 68.4062Q43.1324 68.9141 42.9527 69.5234Q42.7808 70.125 42.7808 70.7031Q42.7808 72.4297 43.6246 73.2656Q44.4761 74.0938 46.398 74.0938ZM48.7339 77.2031Q48.0621 77.5234 47.2417 77.6641Q46.4292 77.8047 45.8511 77.8047Q43.773 77.8047 42.2964 77.3125Q40.8277 76.8125 39.8824 75.9062Q38.9371 74.9922 38.4917 73.7109Q38.0464 72.4297 38.0464 70.8984Q38.0464 69.6172 38.4761 68.2734Q38.9058 66.9297 39.8355 65.8281Q40.7652 64.7188 42.1871 64Q43.6089 63.2812 45.6246 63.2812Q49.7574 63.2812 51.8511 65.8281Q53.9449 68.3672 53.9449 73.1328Q53.9449 76.2734 53.1324 78.6719Q52.3199 81.0703 50.6011 82.7031Q48.8902 84.3359 46.2339 85.1875Q43.5777 86.0312 39.9292 86.0625Q39.898 85.0391 39.8355 84.0781Q39.773 83.1172 39.7105 82.0938Q41.5308 82.0625 42.9996 81.8281Q44.4761 81.5859 45.5933 81.0234Q46.7183 80.4609 47.4996 79.5391Q48.2808 78.6094 48.7339 77.2031ZM65.5349 69.6484Q64.2849 71.2812 62.8709 73.2031Q61.4646 75.1172 60.5115 77.1328L65.5349 77.1328L65.5349 69.6484ZM70.2068 63.8203L70.2068 77.1328L72.574 77.1328L72.574 81.0391L70.2068 81.0391L70.2068 86L65.5349 86L65.5349 81.0391L55.9646 81.0391L55.9646 77.5547Q56.6677 76.1406 57.7224 74.3672Q58.7771 72.5938 60.074 70.7266Q61.3709 68.8516 62.8084 67.0625Q64.2537 65.2656 65.6912 63.8203L70.2068 63.8203ZM85.0234 79.4688Q85.0234 78.5469 84.6016 77.8281Q84.1875 77.1016 83.1641 76.625Q82.1406 76.1406 80.4141 75.8906Q78.6875 75.6328 76.0625 75.6328Q76.4141 72.6562 76.6328 69.5859Q76.8594 66.5156 76.9844 63.8203L88.9844 63.8203L88.9844 67.8203L80.9844 67.8203Q80.9219 68.9766 80.8438 70.0469Q80.7656 71.1172 80.6719 71.9219Q85.3438 72.2422 87.5625 74.1172Q89.7891 75.9844 89.7891 79.3125Q89.7891 80.8516 89.2422 82.1641Q88.7031 83.4688 87.6094 84.4297Q86.5234 85.3906 84.875 85.9375Q83.2266 86.4766 81.0234 86.4766Q80.1562 86.4766 79.2109 86.3672Q78.2656 86.2578 77.3828 86.0781Q76.5078 85.9062 75.8047 85.7188Q75.1016 85.5234 74.7188 85.3281L75.5781 81.3906Q76.3828 81.7422 77.6953 82.0781Q79.0078 82.4141 80.8281 82.4141Q83.0391 82.4141 84.0312 81.5391Q85.0234 80.6562 85.0234 79.4688ZM107.551 69.6484Q107.551 70.8672 107.067 71.9844Q106.59 73.1016 105.817 74.1484Q105.051 75.1875 104.09 76.1484Q103.129 77.1016 102.207 77.9688Q101.723 78.4141 101.16 78.9766Q100.606 79.5391 100.09 80.1172Q99.5822 80.6875 99.176 81.1875Q98.7776 81.6797 98.6838 82L108.223 82L108.223 86L93.4338 86Q93.3713 85.6484 93.3713 85.1094Q93.3713 84.5625 93.3713 84.3359Q93.3713 82.7969 93.8635 81.5234Q94.3635 80.2422 95.1604 79.1406Q95.9651 78.0312 96.9729 77.0703Q97.9807 76.1094 98.9729 75.1484Q99.7385 74.4141 100.41 73.7578Q101.082 73.1016 101.59 72.4844Q102.106 71.8594 102.395 71.2344Q102.684 70.6094 102.684 69.9688Q102.684 68.5625 101.879 67.9844Q101.082 67.4062 99.9026 67.4062Q99.0354 67.4062 98.2854 67.6797Q97.5354 67.9531 96.9104 68.3203Q96.2854 68.6875 95.8322 69.0547Q95.3869 69.4219 95.1604 69.6484L92.7932 66.3203Q94.2072 65.0078 96.0744 64.1641Q97.9494 63.3125 100.09 63.3125Q102.043 63.3125 103.449 63.7656Q104.863 64.2109 105.77 65.0312Q106.684 65.8438 107.113 67.0156Q107.551 68.1797 107.551 69.6484Z" fill="#1E212C" fill-opacity="1.000000" fill-rule="evenodd"/>
	</g>
</svg>
