<svg width="148.000000" height="148.000000" viewBox="0 0 148 148" fill="none" xmlns="http://www.w3.org/2000/svg" xmlns:xlink="http://www.w3.org/1999/xlink">
	<desc>
			Created with Pixso.
	</desc>
	<defs>
		<clipPath id="clip2111_1795">
			<rect id="circle-progress" width="148.000000" height="148.000000" fill="white" fill-opacity="0"/>
		</clipPath>
	</defs>
	<g clip-path="url(#clip2111_1795)">
		<g opacity="0.300000">
			<circle id="ellipse" cx="74.000000" cy="74.000000" r="71.000000" stroke="#F89828" stroke-opacity="1.000000" stroke-width="6.000000"/>
		</g>
		<path id="ellipse" d="M142 74C142 111.555 111.556 142 74 142C36.4443 142 6 111.555 6 74C6 53.2246 15.3164 34.625 30 22.1523L26.209 17.5C10.1777 31.0742 0 51.3477 0 74C0 114.869 33.1309 148 74 148C114.869 148 148 114.869 148 74C148 33.1309 114.869 0 74 0L74 6C111.556 6 142 36.4453 142 74Z" fill="#F89828" fill-opacity="1.000000" fill-rule="evenodd"/>
		<path id="98%" d="M49.386 74.0938Q50.1204 74.0938 50.9172 73.9531Q51.7219 73.8047 52.1047 73.5547L52.1047 73.2656Q52.1047 73.1328 52.1204 73.0078Q52.136 72.8828 52.136 72.7812Q52.1047 71.6328 51.9407 70.625Q51.7844 69.6172 51.4016 68.8672Q51.0188 68.1094 50.3626 67.6797Q49.7063 67.25 48.7454 67.25Q47.9797 67.25 47.4016 67.5703Q46.8235 67.8906 46.4719 68.4062Q46.1204 68.9141 45.9407 69.5234Q45.7688 70.125 45.7688 70.7031Q45.7688 72.4297 46.6126 73.2656Q47.4641 74.0938 49.386 74.0938ZM51.7219 77.2031Q51.0501 77.5234 50.2297 77.6641Q49.4172 77.8047 48.8391 77.8047Q46.761 77.8047 45.2844 77.3125Q43.8157 76.8125 42.8704 75.9062Q41.9251 74.9922 41.4797 73.7109Q41.0344 72.4297 41.0344 70.8984Q41.0344 69.6172 41.4641 68.2734Q41.8938 66.9297 42.8235 65.8281Q43.7532 64.7188 45.1751 64Q46.5969 63.2812 48.6126 63.2812Q52.7454 63.2812 54.8391 65.8281Q56.9329 68.3672 56.9329 73.1328Q56.9329 76.2734 56.1204 78.6719Q55.3079 81.0703 53.5891 82.7031Q51.8782 84.3359 49.2219 85.1875Q46.5657 86.0312 42.9172 86.0625Q42.886 85.0391 42.8235 84.0781Q42.761 83.1172 42.6985 82.0938Q44.5188 82.0625 45.9876 81.8281Q47.4641 81.5859 48.5813 81.0234Q49.7063 80.4609 50.4876 79.5391Q51.2688 78.6094 51.7219 77.2031ZM75.2729 79.8203Q75.2729 81.2656 74.7729 82.4688Q74.2807 83.6641 73.2886 84.5625Q72.2964 85.4531 70.8042 85.9531Q69.3198 86.4453 67.3667 86.4453Q65.1245 86.4453 63.6401 85.8281Q62.1557 85.2031 61.2417 84.2734Q60.3276 83.3438 59.9448 82.2422Q59.562 81.1328 59.562 80.2109Q59.562 79.25 59.812 78.4531Q60.0698 77.6484 60.5151 76.9922Q60.9682 76.3359 61.5229 75.7969Q62.0854 75.25 62.7261 74.7656Q61.3511 73.6484 60.6948 72.5625Q60.0386 71.4688 60.0386 69.7734Q60.0386 68.4922 60.562 67.3125Q61.0932 66.125 62.0542 65.25Q63.0151 64.3672 64.3745 63.8438Q65.7339 63.3125 67.3979 63.3125Q69.3511 63.3125 70.7417 63.875Q72.1323 64.4297 73.0307 65.2969Q73.9292 66.1562 74.3276 67.2344Q74.7261 68.3047 74.7261 69.3594Q74.7261 70.8984 73.9057 72.2266Q73.0932 73.5547 71.8823 74.3203Q73.7026 75.5078 74.4839 76.8047Q75.2729 78.0938 75.2729 79.8203ZM64.2026 80.0156Q64.2026 80.3984 64.3745 80.8672Q64.5542 81.3281 64.937 81.7109Q65.3198 82.0938 65.9292 82.3516Q66.5386 82.6094 67.3979 82.6094Q69.062 82.6094 69.8276 81.8125Q70.6011 81.0078 70.6011 80.0156Q70.6011 79.2812 70.2651 78.7031Q69.9292 78.125 69.3511 77.6953Q68.7729 77.2656 67.9917 76.9297Q67.2104 76.5938 66.312 76.3047Q65.4136 76.9766 64.8042 77.875Q64.2026 78.7656 64.2026 80.0156ZM70.1167 69.4844Q70.1167 69.1328 69.9761 68.7344Q69.8354 68.3359 69.4995 67.9844Q69.1636 67.6328 68.6479 67.3906Q68.1323 67.1484 67.3979 67.1484Q66.6948 67.1484 66.1792 67.375Q65.6714 67.6016 65.3354 67.9688Q64.9995 68.3359 64.8354 68.7578Q64.6792 69.1719 64.6792 69.5547Q64.6792 70.5781 65.4292 71.4766Q66.187 72.3672 68.0073 73.0078Q69.0307 72.3672 69.5698 71.5391Q70.1167 70.7031 70.1167 69.4844ZM88.9333 69.5234Q88.9333 72.5312 87.3942 74.1328Q85.863 75.7266 83.2692 75.7266Q80.6833 75.7266 79.1442 74.1328Q77.6052 72.5312 77.6052 69.5234Q77.6052 66.5156 79.1442 64.9141Q80.6833 63.3125 83.2692 63.3125Q85.863 63.3125 87.3942 64.9141Q88.9333 66.5156 88.9333 69.5234ZM85.3161 69.5234Q85.3161 67.8906 84.738 67.1562Q84.1677 66.4141 83.2692 66.4141Q82.3474 66.4141 81.7849 67.1562Q81.2224 67.8906 81.2224 69.5234Q81.2224 71.1484 81.7849 71.9062Q82.3474 72.6562 83.2692 72.6562Q84.1677 72.6562 84.738 71.9062Q85.3161 71.1484 85.3161 69.5234ZM95.1755 63.8203L99.6208 63.8203L87.113 86L82.6677 86L95.1755 63.8203ZM104.746 80.3047Q104.746 83.3125 103.207 84.9141Q101.675 86.5156 99.0817 86.5156Q96.488 86.5156 94.9489 84.9141Q93.4177 83.3125 93.4177 80.3047Q93.4177 77.2969 94.9489 75.6953Q96.488 74.0938 99.0817 74.0938Q101.675 74.0938 103.207 75.6953Q104.746 77.2969 104.746 80.3047ZM101.129 80.3047Q101.129 78.6719 100.55 77.9375Q99.9724 77.2031 99.0817 77.2031Q98.1521 77.2031 97.5896 77.9375Q97.0349 78.6719 97.0349 80.3047Q97.0349 81.9375 97.5896 82.6875Q98.1521 83.4375 99.0817 83.4375Q99.9724 83.4375 100.55 82.6875Q101.129 81.9375 101.129 80.3047Z" fill="#1E212C" fill-opacity="1.000000" fill-rule="evenodd"/>
	</g>
</svg>
