<svg width="148.000000" height="148.000000" viewBox="0 0 148 148" fill="none" xmlns="http://www.w3.org/2000/svg" xmlns:xlink="http://www.w3.org/1999/xlink">
	<desc>
			Created with Pixso.
	</desc>
	<defs>
		<clipPath id="clip2111_1778">
			<rect id="circle-progress" width="148.000000" height="148.000000" fill="white" fill-opacity="0"/>
		</clipPath>
	</defs>
	<g clip-path="url(#clip2111_1778)">
		<circle id="ellipse" cx="74.000000" cy="74.000000" r="71.000000" stroke="#03CEA4" stroke-opacity="1.000000" stroke-width="6.000000"/>
		<path id="100%" d="M33.2902 68.4297Q34.2199 68.0469 35.2277 67.5547Q36.2355 67.0547 37.1886 66.4688Q38.1496 65.875 39.0324 65.2188Q39.9152 64.5625 40.6183 63.8203L43.9464 63.8203L43.9464 86L39.173 86L39.173 70.0312Q38.2199 70.6719 37.0324 71.2031Q35.8449 71.7266 34.7277 72.1094L33.2902 68.4297ZM66.3099 74.8672Q66.3099 80.4609 64.1771 83.4531Q62.0521 86.4453 58.3099 86.4453Q54.5677 86.4453 52.4349 83.4531Q50.3099 80.4609 50.3099 74.8672Q50.3099 72.0781 50.8724 69.9375Q51.4349 67.7891 52.4896 66.3203Q53.5443 64.8516 55.0131 64.0859Q56.4896 63.3125 58.3099 63.3125Q62.0521 63.3125 64.1771 66.3047Q66.3099 69.2969 66.3099 74.8672ZM61.4506 74.8672Q61.4506 73.2031 61.2865 71.8438Q61.1302 70.4766 60.7787 69.4844Q60.4271 68.4922 59.8177 67.9531Q59.2084 67.4062 58.3099 67.4062Q57.4193 67.4062 56.8256 67.9531Q56.2318 68.4922 55.8646 69.4844Q55.4974 70.4766 55.3334 71.8438Q55.1771 73.2031 55.1771 74.8672Q55.1771 76.5312 55.3334 77.9062Q55.4974 79.2812 55.8646 80.2734Q56.2318 81.2656 56.8256 81.8125Q57.4193 82.3516 58.3099 82.3516Q59.2084 82.3516 59.8177 81.8125Q60.4271 81.2656 60.7787 80.2734Q61.1302 79.2812 61.2865 77.9062Q61.4506 76.5312 61.4506 74.8672ZM84.4859 74.8672Q84.4859 80.4609 82.3531 83.4531Q80.2281 86.4453 76.4859 86.4453Q72.7438 86.4453 70.6109 83.4531Q68.4859 80.4609 68.4859 74.8672Q68.4859 72.0781 69.0484 69.9375Q69.6109 67.7891 70.6656 66.3203Q71.7203 64.8516 73.1891 64.0859Q74.6656 63.3125 76.4859 63.3125Q80.2281 63.3125 82.3531 66.3047Q84.4859 69.2969 84.4859 74.8672ZM79.6266 74.8672Q79.6266 73.2031 79.4625 71.8438Q79.3063 70.4766 78.9547 69.4844Q78.6031 68.4922 77.9938 67.9531Q77.3844 67.4062 76.4859 67.4062Q75.5953 67.4062 75.0016 67.9531Q74.4078 68.4922 74.0406 69.4844Q73.6734 70.4766 73.5094 71.8438Q73.3531 73.2031 73.3531 74.8672Q73.3531 76.5312 73.5094 77.9062Q73.6734 79.2812 74.0406 80.2734Q74.4078 81.2656 75.0016 81.8125Q75.5953 82.3516 76.4859 82.3516Q77.3844 82.3516 77.9938 81.8125Q78.6031 81.2656 78.9547 80.2734Q79.3063 79.2812 79.4625 77.9062Q79.6266 76.5312 79.6266 74.8672ZM98.0213 69.5234Q98.0213 72.5312 96.4823 74.1328Q94.951 75.7266 92.3573 75.7266Q89.7713 75.7266 88.2323 74.1328Q86.6932 72.5312 86.6932 69.5234Q86.6932 66.5156 88.2323 64.9141Q89.7713 63.3125 92.3573 63.3125Q94.951 63.3125 96.4823 64.9141Q98.0213 66.5156 98.0213 69.5234ZM94.4041 69.5234Q94.4041 67.8906 93.826 67.1562Q93.2557 66.4141 92.3573 66.4141Q91.4354 66.4141 90.8729 67.1562Q90.3104 67.8906 90.3104 69.5234Q90.3104 71.1484 90.8729 71.9062Q91.4354 72.6562 92.3573 72.6562Q93.2557 72.6562 93.826 71.9062Q94.4041 71.1484 94.4041 69.5234ZM104.264 63.8203L108.709 63.8203L96.201 86L91.7557 86L104.264 63.8203ZM113.834 80.3047Q113.834 83.3125 112.295 84.9141Q110.764 86.5156 108.17 86.5156Q105.576 86.5156 104.037 84.9141Q102.506 83.3125 102.506 80.3047Q102.506 77.2969 104.037 75.6953Q105.576 74.0938 108.17 74.0938Q110.764 74.0938 112.295 75.6953Q113.834 77.2969 113.834 80.3047ZM110.217 80.3047Q110.217 78.6719 109.639 77.9375Q109.06 77.2031 108.17 77.2031Q107.24 77.2031 106.678 77.9375Q106.123 78.6719 106.123 80.3047Q106.123 81.9375 106.678 82.6875Q107.24 83.4375 108.17 83.4375Q109.06 83.4375 109.639 82.6875Q110.217 81.9375 110.217 80.3047Z" fill="#1E212C" fill-opacity="1.000000" fill-rule="evenodd"/>
	</g>
</svg>
