<svg width="148.000000" height="148.000000" viewBox="0 0 148 148" fill="none" xmlns="http://www.w3.org/2000/svg" xmlns:xlink="http://www.w3.org/1999/xlink">
	<desc>
			Created with Pixso.
	</desc>
	<defs>
		<clipPath id="clip2111_1795">
			<rect id="circle-progress" width="148.000000" height="148.000000" fill="white" fill-opacity="0"/>
		</clipPath>
	</defs>
	<g clip-path="url(#clip2111_1795)">
		<g opacity="0.300000">
			<circle id="ellipse" cx="74.000000" cy="74.000000" r="71.000000" stroke="#F89828" stroke-opacity="1.000000" stroke-width="6.000000"/>
		</g>
		<path id="ellipse" d="M142 74C142 111.55 111.55 142 74 142C36.44 142 6 111.55 6 74C6 53.22 15.31 34.62 30 22.15L26.2 17.5C10.17 31.07 0 51.34 0 74C0 114.86 33.13 148 74 148C114.86 148 148 114.86 148 74C148 33.13 114.86 0 74 0L74 6C111.55 6 142 36.44 142 74Z" fill="#F89828" fill-opacity="1.000000" fill-rule="evenodd"/>
		<path id="98%" d="M50.22 77.66Q51.05 77.52 51.72 77.2Q51.26 78.6 50.48 79.53Q50.28 79.77 50.06 79.98Q49.42 80.6 48.58 81.02Q47.46 81.58 45.98 81.82Q44.51 82.06 42.69 82.09Q42.76 83.11 42.82 84.07Q42.88 85.03 42.91 86.06Q46.56 86.03 49.22 85.18Q51.87 84.33 53.58 82.7Q53.96 82.34 54.29 81.95Q55.48 80.54 56.12 78.67Q56.93 76.27 56.93 73.13Q56.93 68.36 54.83 65.82Q54.4 65.29 53.87 64.87Q51.88 63.28 48.61 63.28Q46.59 63.28 45.17 64Q43.75 64.71 42.82 65.82Q42.22 66.53 41.83 67.34Q41.61 67.79 41.46 68.27Q41.03 69.61 41.03 70.89Q41.03 72.42 41.47 73.71Q41.76 74.53 42.26 75.2Q42.53 75.58 42.87 75.9Q43.81 76.81 45.28 77.31Q46.76 77.8 48.83 77.8Q49.41 77.8 50.22 77.66ZM74.77 82.46Q75.27 81.26 75.27 79.82Q75.27 78.21 74.59 76.99Q74.54 76.89 74.48 76.8Q73.7 75.5 71.88 74.32Q72.01 74.23 72.14 74.14Q73.18 73.4 73.9 72.22Q74.35 71.49 74.55 70.7Q74.72 70.05 74.72 69.35Q74.72 68.3 74.32 67.23Q74.27 67.1 74.22 66.97Q73.81 66.05 73.03 65.29Q72.13 64.42 70.74 63.87Q69.35 63.31 67.39 63.31Q65.73 63.31 64.37 63.84Q63.01 64.36 62.05 65.25Q61.57 65.68 61.2 66.19Q60.83 66.71 60.56 67.31Q60.27 67.95 60.14 68.62Q60.03 69.18 60.03 69.77Q60.03 71.46 60.69 72.56Q61.35 73.64 62.72 74.76Q62.08 75.25 61.52 75.79Q60.96 76.33 60.51 76.99Q60.06 77.64 59.81 78.45Q59.56 79.25 59.56 80.21Q59.56 81.13 59.94 82.24Q60.32 83.34 61.24 84.27Q62.15 85.2 63.64 85.82Q65.12 86.44 67.36 86.44Q69.31 86.44 70.8 85.95Q72.29 85.45 73.28 84.56Q73.96 83.95 74.4 83.2Q74.61 82.85 74.77 82.46ZM87.47 74.04Q88.93 72.45 88.93 69.52Q88.93 66.59 87.47 65Q87.43 64.95 87.39 64.91Q87 64.5 86.54 64.2Q85.2 63.31 83.26 63.31Q81.35 63.31 80.01 64.18Q79.54 64.49 79.14 64.91Q79.1 64.95 79.06 65Q77.6 66.59 77.6 69.52Q77.6 72.45 79.06 74.04Q79.1 74.08 79.14 74.13Q79.53 74.53 79.99 74.84Q81.34 75.72 83.26 75.72Q85.21 75.72 86.56 74.82Q87.01 74.52 87.39 74.13Q87.43 74.08 87.47 74.04ZM99.62 63.82L95.17 63.82L82.66 86L87.11 86L99.62 63.82ZM84.73 67.15Q85.31 67.89 85.31 69.52Q85.31 71.14 84.73 71.9Q84.41 72.32 83.99 72.51Q83.66 72.65 83.26 72.65Q82.82 72.65 82.46 72.48Q82.07 72.29 81.78 71.9Q81.22 71.14 81.22 69.52Q81.22 67.89 81.78 67.15Q82.07 66.77 82.45 66.59Q82.82 66.41 83.26 66.41Q83.67 66.41 84 66.56Q84.42 66.74 84.73 67.15ZM69.97 68.73Q70.11 69.13 70.11 69.48Q70.11 70.7 69.56 71.53Q69.03 72.36 68 73Q66.18 72.36 65.42 71.47Q64.84 70.77 64.71 70Q64.67 69.78 64.67 69.55Q64.67 69.17 64.83 68.75Q64.99 68.33 65.33 67.96Q65.67 67.6 66.17 67.37Q66.69 67.14 67.39 67.14Q68.13 67.14 68.64 67.39Q69.16 67.63 69.49 67.98Q69.83 68.33 69.97 68.73ZM50.91 73.95Q50.12 74.09 49.38 74.09Q47.46 74.09 46.61 73.26Q45.76 72.42 45.76 70.7Q45.76 70.12 45.94 69.52Q46.08 69.04 46.32 68.63Q46.39 68.51 46.47 68.4Q46.55 68.28 46.65 68.17Q46.95 67.81 47.4 67.57Q47.97 67.25 48.74 67.25Q49.7 67.25 50.36 67.67Q50.5 67.77 50.62 67.87Q51.09 68.26 51.4 68.86Q51.78 69.61 51.94 70.62Q52.1 71.63 52.13 72.78Q52.13 72.88 52.12 73Q52.1 73.13 52.1 73.26L52.1 73.55Q51.72 73.8 50.91 73.95ZM103.28 84.82Q104.74 83.23 104.74 80.3Q104.74 77.37 103.28 75.78Q103.24 75.73 103.2 75.69Q102.81 75.28 102.36 74.98Q101.01 74.09 99.08 74.09Q97.15 74.09 95.8 74.98Q95.34 75.28 94.94 75.69Q94.91 75.72 94.88 75.76Q93.41 77.36 93.41 80.3Q93.41 83.24 94.88 84.84Q94.91 84.87 94.94 84.91Q95.34 85.32 95.8 85.62Q97.15 86.51 99.08 86.51Q101.01 86.51 102.36 85.62Q102.81 85.32 103.2 84.91Q103.24 84.87 103.28 84.82ZM64.37 80.86Q64.2 80.39 64.2 80.01Q64.2 78.87 64.7 78.02Q64.75 77.95 64.8 77.87Q64.92 77.69 65.06 77.51Q65.59 76.84 66.31 76.3Q67.21 76.59 67.99 76.92Q68.77 77.26 69.35 77.69Q69.89 78.1 70.22 78.63Q70.24 78.67 70.26 78.7Q70.32 78.79 70.36 78.89Q70.6 79.4 70.6 80.01Q70.6 80.3 70.53 80.58Q70.37 81.24 69.82 81.81Q69.06 82.6 67.39 82.6Q66.53 82.6 65.92 82.35Q65.31 82.09 64.93 81.71Q64.55 81.32 64.37 80.86ZM100.55 77.93Q101.12 78.67 101.12 80.3Q101.12 81.93 100.55 82.68Q100.21 83.12 99.77 83.3Q99.45 83.43 99.08 83.43Q98.62 83.43 98.25 83.25Q97.87 83.07 97.58 82.68Q97.03 81.93 97.03 80.3Q97.03 78.67 97.58 77.93Q97.86 77.57 98.23 77.39Q98.61 77.2 99.08 77.2Q99.47 77.2 99.8 77.34Q100.22 77.52 100.55 77.93Z" fill="#1E212C" fill-opacity="1.000000" fill-rule="evenodd"/>
	</g>
</svg>
