<svg width="148.000000" height="148.000000" viewBox="0 0 148 148" fill="none" xmlns="http://www.w3.org/2000/svg" xmlns:xlink="http://www.w3.org/1999/xlink">
	<desc>
			Created with Pixso.
	</desc>
	<defs>
		<clipPath id="clip2111_1789">
			<rect id="circle-progress" width="148.000000" height="148.000000" fill="white" fill-opacity="0"/>
		</clipPath>
	</defs>
	<g clip-path="url(#clip2111_1789)">
		<g opacity="0.300000">
			<circle id="ellipse" cx="74.000000" cy="74.000000" r="71.000000" stroke="#F52F6E" stroke-opacity="1.000000" stroke-width="6.000000"/>
		</g>
		<path id="ellipse" d="M142 74C142 111.55 111.55 142 74 142C36.44 142 6 111.55 6 74L0 74C0 114.86 33.13 148 74 148C114.86 148 148 114.86 148 74C148 33.13 114.86 0 74 0L74 6C111.55 6 142 36.44 142 74Z" fill="#F52F6E" fill-opacity="1.000000" fill-rule="evenodd"/>
		<path id="20" d="M71.07 70.85Q71.19 70.26 71.19 69.64Q71.19 68.17 70.76 67.01Q70.5 66.32 70.09 65.76Q69.79 65.36 69.41 65.03Q68.51 64.21 67.09 63.76Q65.69 63.31 63.73 63.31Q62.2 63.31 60.81 63.74Q60.25 63.92 59.72 64.16Q57.85 65 56.44 66.32L58.8 69.64Q59.03 69.42 59.48 69.05Q59.93 68.68 60.55 68.32Q61.18 67.95 61.93 67.67Q62.68 67.4 63.55 67.4Q64.65 67.4 65.42 67.91Q65.47 67.94 65.52 67.98Q65.62 68.05 65.71 68.14Q66.33 68.74 66.33 69.96Q66.33 70.04 66.32 70.12Q66.29 70.68 66.04 71.23Q65.75 71.85 65.23 72.48Q64.73 73.1 64.05 73.75Q63.38 74.41 62.62 75.14Q61.62 76.1 60.62 77.07Q59.63 78.01 58.83 79.09Q58.82 79.11 58.8 79.14Q58.55 79.49 58.32 79.86Q57.85 80.65 57.51 81.52Q57.01 82.79 57.01 84.33L57.01 85.1Q57.01 85.64 57.08 86L71.87 86L71.87 82L62.33 82Q62.42 81.67 62.82 81.18Q63.23 80.68 63.73 80.11Q64.25 79.53 64.8 78.97Q65.37 78.41 65.85 77.96Q66.77 77.1 67.73 76.14Q68.69 75.18 69.46 74.14Q70.23 73.1 70.71 71.98Q70.95 71.43 71.07 70.85ZM88.45 83.45Q90.58 80.46 90.58 74.86Q90.58 69.29 88.45 66.3Q87.43 64.87 86.05 64.13Q84.54 63.31 82.58 63.31Q80.99 63.31 79.66 63.9Q79.47 63.98 79.28 64.08Q79.13 64.16 78.98 64.25Q77.7 65 76.76 66.32Q75.71 67.78 75.14 69.93Q74.58 72.07 74.58 74.86Q74.58 80.46 76.71 83.45Q77.73 84.88 79.11 85.63Q80.63 86.44 82.58 86.44Q84.54 86.44 86.05 85.62Q87.43 84.88 88.45 83.45ZM85.56 71.84Q85.72 73.2 85.72 74.86Q85.72 76.53 85.56 77.9Q85.4 79.28 85.05 80.27Q84.7 81.26 84.09 81.81Q83.9 81.97 83.69 82.09Q83.2 82.35 82.58 82.35Q81.96 82.35 81.48 82.08Q81.28 81.97 81.1 81.81Q80.5 81.26 80.14 80.27Q79.77 79.28 79.6 77.9Q79.45 76.53 79.45 74.86Q79.45 73.2 79.6 71.84Q79.77 70.47 80.14 69.48Q80.5 68.49 81.1 67.95Q81.28 67.77 81.5 67.66Q81.97 67.4 82.58 67.4Q83.19 67.4 83.67 67.65Q83.89 67.77 84.09 67.95Q84.7 68.49 85.05 69.48Q85.4 70.47 85.56 71.84Z" fill="#1E212C" fill-opacity="1.000000" fill-rule="evenodd"/>
	</g>
</svg>
