<svg width="148.000000" height="148.000000" viewBox="0 0 148 148" fill="none" xmlns="http://www.w3.org/2000/svg" xmlns:xlink="http://www.w3.org/1999/xlink">
	<desc>
			Created with Pixso.
	</desc>
	<defs>
		<clipPath id="clip2111_1783">
			<rect id="circle-progress" width="148.000000" height="148.000000" fill="white" fill-opacity="0"/>
		</clipPath>
	</defs>
	<g clip-path="url(#clip2111_1783)">
		<g opacity="0.300000">
			<circle id="ellipse" cx="74.000000" cy="74.000000" r="71.000000" stroke="#5A87FC" stroke-opacity="1.000000" stroke-width="6.000000"/>
		</g>
		<path id="ellipse" d="M142 74C142 111.55 111.55 142 74 142C36.44 142 6 111.55 6 74C6 63.03 8.59 52.67 13.2 43.5L7.74 41C2.78 50.93 0 62.14 0 74C0 114.86 33.13 148 74 148C114.86 148 148 114.86 148 74C148 33.13 114.86 0 74 0L74 6C111.55 6 142 36.44 142 74Z" fill="#5A87FC" fill-opacity="1.000000" fill-rule="evenodd"/>
		<path id="9452" d="M47.24 77.66Q48.06 77.52 48.73 77.2Q48.28 78.6 47.49 79.53Q47.3 79.77 47.08 79.98Q46.43 80.6 45.59 81.02Q44.47 81.58 42.99 81.82Q41.53 82.06 39.71 82.09Q39.77 83.11 39.83 84.07Q39.89 85.03 39.92 86.06Q43.57 86.03 46.23 85.18Q48.89 84.33 50.6 82.7Q50.97 82.34 51.3 81.95Q52.49 80.54 53.13 78.67Q53.94 76.27 53.94 73.13Q53.94 68.36 51.85 65.82Q51.41 65.29 50.89 64.87Q48.89 63.28 45.62 63.28Q43.6 63.28 42.18 64Q40.76 64.71 39.83 65.82Q39.23 66.53 38.84 67.34Q38.63 67.79 38.47 68.27Q38.04 69.61 38.04 70.89Q38.04 72.42 38.49 73.71Q38.77 74.53 39.27 75.2Q39.54 75.58 39.88 75.9Q40.82 76.81 42.29 77.31Q43.77 77.8 45.85 77.8Q46.42 77.8 47.24 77.66ZM107.42 70.85Q107.55 70.26 107.55 69.64Q107.55 68.17 107.11 67.01Q106.86 66.32 106.44 65.76Q106.14 65.36 105.77 65.03Q104.86 64.21 103.44 63.76Q102.04 63.31 100.09 63.31Q98.56 63.31 97.16 63.74Q96.6 63.92 96.07 64.16Q94.2 65 92.79 66.32L95.16 69.64Q95.38 69.42 95.83 69.05Q96.28 68.68 96.91 68.32Q97.53 67.95 98.28 67.67Q99.03 67.4 99.9 67.4Q101.01 67.4 101.78 67.91Q101.83 67.94 101.87 67.98Q101.98 68.05 102.07 68.14Q102.68 68.74 102.68 69.96Q102.68 70.04 102.68 70.12Q102.64 70.68 102.39 71.23Q102.1 71.85 101.59 72.48Q101.08 73.1 100.41 73.75Q99.73 74.41 98.97 75.14Q97.98 76.1 96.97 77.07Q95.98 78.01 95.19 79.09Q95.17 79.11 95.16 79.14Q94.9 79.49 94.67 79.86Q94.2 80.65 93.86 81.52Q93.37 82.79 93.37 84.33L93.37 85.1Q93.37 85.64 93.43 86L108.22 86L108.22 82L98.68 82Q98.77 81.67 99.17 81.18Q99.58 80.68 100.09 80.11Q100.6 79.53 101.16 78.97Q101.72 78.41 102.2 77.96Q103.12 77.1 104.09 76.14Q105.05 75.18 105.81 74.14Q106.59 73.1 107.06 71.98Q107.3 71.43 107.42 70.85ZM70.2 77.13L70.2 63.82L65.69 63.82Q64.25 65.26 62.8 67.06Q61.37 68.85 60.07 70.72Q58.77 72.59 57.72 74.36Q56.66 76.14 55.96 77.55L55.96 81.03L65.53 81.03L65.53 86L70.2 86L70.2 81.03L72.57 81.03L72.57 77.13L70.2 77.13ZM84.71 78.04Q85.02 78.68 85.02 79.46Q85.02 79.86 84.91 80.23Q84.69 80.95 84.03 81.53Q83.03 82.41 80.82 82.41Q79 82.41 77.69 82.07Q76.38 81.74 75.57 81.39L74.71 85.32Q75.1 85.52 75.8 85.71Q76.5 85.9 77.38 86.07Q78.26 86.25 79.21 86.36Q80.15 86.47 81.02 86.47Q83.22 86.47 84.87 85.93Q86.52 85.39 87.6 84.42Q88.31 83.8 88.79 83.03Q89.05 82.62 89.24 82.16Q89.24 82.15 89.24 82.15Q89.78 80.84 89.78 79.31Q89.78 77.03 88.74 75.43Q88.26 74.7 87.56 74.11Q85.34 72.24 80.67 71.92Q80.76 71.11 80.84 70.04Q80.92 68.97 80.98 67.82L88.98 67.82L88.98 63.82L76.98 63.82Q76.85 66.51 76.63 69.58Q76.41 72.65 76.06 75.63Q78.68 75.63 80.41 75.89Q82.14 76.14 83.16 76.62Q84.18 77.1 84.6 77.82Q84.66 77.93 84.71 78.04ZM47.92 73.95Q47.13 74.09 46.39 74.09Q44.47 74.09 43.62 73.26Q42.78 72.42 42.78 70.7Q42.78 70.12 42.95 69.52Q43.09 69.04 43.33 68.63Q43.4 68.51 43.48 68.4Q43.56 68.28 43.66 68.17Q43.97 67.81 44.41 67.57Q44.99 67.25 45.75 67.25Q46.71 67.25 47.37 67.67Q47.51 67.77 47.63 67.87Q48.11 68.26 48.41 68.86Q48.79 69.61 48.95 70.62Q49.11 71.63 49.14 72.78Q49.14 72.88 49.13 73Q49.11 73.13 49.11 73.26L49.11 73.55Q48.73 73.8 47.92 73.95ZM62.87 73.2Q64.28 71.28 65.53 69.64L65.53 77.13L60.51 77.13Q61.46 75.11 62.87 73.2Z" fill="#1E212C" fill-opacity="1.000000" fill-rule="evenodd"/>
	</g>
</svg>
