<svg width="148.000000" height="148.000000" viewBox="0 0 148 148" fill="none" xmlns="http://www.w3.org/2000/svg" xmlns:xlink="http://www.w3.org/1999/xlink">
	<desc>
			Created with Pixso.
	</desc>
	<defs>
		<clipPath id="clip2111_1778">
			<rect id="circle-progress" width="148.000000" height="148.000000" fill="white" fill-opacity="0"/>
		</clipPath>
	</defs>
	<g clip-path="url(#clip2111_1778)">
		<circle id="ellipse" cx="74.000000" cy="74.000000" r="71.000000" stroke="#03CEA4" stroke-opacity="1.000000" stroke-width="6.000000"/>
		<path id="100%" d="M64.17 83.45Q66.3 80.46 66.3 74.86Q66.3 69.29 64.17 66.3Q63.16 64.87 61.78 64.13Q60.26 63.31 58.3 63.31Q56.71 63.31 55.39 63.9Q55.19 63.98 55.01 64.08Q54.85 64.16 54.7 64.25Q53.43 65 52.48 66.32Q51.43 67.78 50.87 69.93Q50.3 72.07 50.3 74.86Q50.3 80.46 52.43 83.45Q53.45 84.88 54.84 85.63Q56.35 86.44 58.3 86.44Q60.26 86.44 61.78 85.62Q63.16 84.88 64.17 83.45ZM82.35 83.45Q84.48 80.46 84.48 74.86Q84.48 69.29 82.35 66.3Q81.33 64.87 79.95 64.13Q78.44 63.31 76.48 63.31Q74.89 63.31 73.56 63.9Q73.37 63.98 73.18 64.08Q73.03 64.16 72.88 64.25Q71.6 65 70.66 66.32Q69.61 67.78 69.04 69.93Q68.48 72.07 68.48 74.86Q68.48 80.46 70.61 83.45Q71.63 84.88 73.01 85.63Q74.53 86.44 76.48 86.44Q78.44 86.44 79.95 85.62Q81.33 84.88 82.35 83.45ZM96.56 74.04Q98.02 72.45 98.02 69.52Q98.02 66.59 96.56 65Q96.52 64.95 96.48 64.91Q96.09 64.5 95.63 64.2Q94.29 63.31 92.35 63.31Q90.44 63.31 89.1 64.18Q88.63 64.49 88.23 64.91Q88.19 64.95 88.15 65Q86.69 66.59 86.69 69.52Q86.69 72.45 88.15 74.04Q88.19 74.08 88.23 74.13Q88.62 74.53 89.08 74.84Q90.43 75.72 92.35 75.72Q94.3 75.72 95.65 74.82Q96.1 74.52 96.48 74.13Q96.52 74.08 96.56 74.04ZM35.22 67.55Q34.21 68.04 33.29 68.42L34.72 72.1Q35.84 71.72 37.03 71.2Q38.21 70.67 39.17 70.03L39.17 86L43.94 86L43.94 63.82L40.61 63.82Q39.91 64.56 39.03 65.21Q38.14 65.87 37.18 66.46Q36.23 67.05 35.22 67.55ZM108.7 63.82L104.26 63.82L91.75 86L96.2 86L108.7 63.82ZM93.82 67.15Q94.4 67.89 94.4 69.52Q94.4 71.14 93.82 71.9Q93.5 72.32 93.08 72.51Q92.75 72.65 92.35 72.65Q91.91 72.65 91.55 72.48Q91.16 72.29 90.87 71.9Q90.31 71.14 90.31 69.52Q90.31 67.89 90.87 67.15Q91.16 66.77 91.54 66.59Q91.9 66.41 92.35 66.41Q92.75 66.41 93.09 66.56Q93.51 66.74 93.82 67.15ZM61.28 71.84Q61.45 73.2 61.45 74.86Q61.45 76.53 61.28 77.9Q61.13 79.28 60.77 80.27Q60.42 81.26 59.81 81.81Q59.63 81.97 59.41 82.09Q58.93 82.35 58.3 82.35Q57.68 82.35 57.21 82.08Q57 81.97 56.82 81.81Q56.23 81.26 55.86 80.27Q55.49 79.28 55.33 77.9Q55.17 76.53 55.17 74.86Q55.17 73.2 55.33 71.84Q55.49 70.47 55.86 69.48Q56.23 68.49 56.82 67.95Q57.01 67.77 57.23 67.66Q57.7 67.4 58.3 67.4Q58.91 67.4 59.39 67.65Q59.62 67.77 59.81 67.95Q60.42 68.49 60.77 69.48Q61.13 70.47 61.28 71.84ZM79.46 71.84Q79.62 73.2 79.62 74.86Q79.62 76.53 79.46 77.9Q79.3 79.28 78.95 80.27Q78.6 81.26 77.99 81.81Q77.8 81.97 77.59 82.09Q77.1 82.35 76.48 82.35Q75.86 82.35 75.38 82.08Q75.18 81.97 75 81.81Q74.4 81.26 74.04 80.27Q73.67 79.28 73.5 77.9Q73.35 76.53 73.35 74.86Q73.35 73.2 73.5 71.84Q73.67 70.47 74.04 69.48Q74.4 68.49 75 67.95Q75.18 67.77 75.4 67.66Q75.87 67.4 76.48 67.4Q77.09 67.4 77.57 67.65Q77.79 67.77 77.99 67.95Q78.6 68.49 78.95 69.48Q79.3 70.47 79.46 71.84ZM112.37 84.82Q113.83 83.23 113.83 80.3Q113.83 77.37 112.37 75.78Q112.33 75.73 112.29 75.69Q111.9 75.28 111.44 74.98Q110.1 74.09 108.17 74.09Q106.24 74.09 104.89 74.98Q104.43 75.28 104.03 75.69Q104 75.72 103.97 75.76Q102.5 77.36 102.5 80.3Q102.5 83.24 103.97 84.84Q104 84.87 104.03 84.91Q104.43 85.32 104.89 85.62Q106.24 86.51 108.17 86.51Q110.1 86.51 111.44 85.62Q111.9 85.32 112.29 84.91Q112.33 84.87 112.37 84.82ZM109.63 77.93Q110.21 78.67 110.21 80.3Q110.21 81.93 109.63 82.68Q109.3 83.12 108.86 83.3Q108.54 83.43 108.17 83.43Q107.71 83.43 107.34 83.25Q106.96 83.07 106.67 82.68Q106.12 81.93 106.12 80.3Q106.12 78.67 106.67 77.93Q106.95 77.57 107.32 77.39Q107.69 77.2 108.17 77.2Q108.55 77.2 108.88 77.34Q109.31 77.52 109.63 77.93Z" fill="#1E212C" fill-opacity="1.000000" fill-rule="evenodd"/>
	</g>
</svg>
