<svg width="184.000000" height="24.000000" viewBox="0 0 184 24" fill="none" xmlns="http://www.w3.org/2000/svg" xmlns:xlink="http://www.w3.org/1999/xlink">
	<desc>
			Created with Pixso.
	</desc>
	<defs/>
	<g opacity="0.600000">
		<path id="WhatsApp" d="M22 11.74C22 17.12 17.6 21.48 12.18 21.48C10.46 21.48 8.84 21.04 7.43 20.27L2 22L3.77 16.77C2.87 15.3 2.36 13.58 2.36 11.74C2.36 6.36 6.75 2 12.18 2C17.6 2 22 6.36 22 11.74ZM12.18 3.55C7.62 3.55 3.92 7.22 3.92 11.74C3.92 13.53 4.51 15.19 5.5 16.54L4.46 19.58L7.64 18.57C8.94 19.43 10.5 19.93 12.18 19.93C16.73 19.93 20.43 16.25 20.43 11.74C20.43 7.22 16.73 3.55 12.18 3.55ZM17.13 13.98C17.07 13.88 16.91 13.82 16.67 13.7C16.43 13.58 15.25 13 15.03 12.93C14.81 12.85 14.65 12.81 14.49 13.05C14.33 13.28 13.87 13.82 13.73 13.98C13.58 14.14 13.44 14.16 13.2 14.04C12.96 13.92 12.19 13.67 11.27 12.86C10.55 12.22 10.07 11.44 9.93 11.2C9.79 10.96 9.91 10.83 10.04 10.72C10.14 10.61 10.28 10.44 10.4 10.3C10.52 10.16 10.56 10.06 10.64 9.9C10.72 9.74 10.68 9.6 10.62 9.48C10.56 9.36 10.08 8.19 9.87 7.71C9.67 7.23 9.47 7.31 9.33 7.31C9.19 7.31 9.03 7.29 8.87 7.29C8.71 7.29 8.45 7.35 8.23 7.59C8.01 7.83 7.39 8.41 7.39 9.58C7.39 10.75 8.25 11.89 8.37 12.05C8.49 12.21 10.04 14.7 12.48 15.66C14.93 16.61 14.93 16.29 15.37 16.25C15.81 16.21 16.79 15.67 17 15.12C17.19 14.56 17.19 14.08 17.13 13.98Z" fill="#FFFFFF" fill-opacity="1.000000" fill-rule="nonzero"/>
	</g>
	<g opacity="0.600000">
		<path id="Vector" d="M52 2C46.47 2 42 6.14 42 11.25C42 14.17 43.45 16.77 45.72 18.46L45.72 22L49.13 20.13C50.04 20.38 51 20.51 52 20.51C57.52 20.51 62 16.37 62 11.25C62 6.14 57.52 2 52 2ZM52.99 14.46L50.44 11.75L45.47 14.46L50.94 8.66L53.55 11.38L58.46 8.66L52.99 14.46Z" fill="#FFFFFF" fill-opacity="1.000000" fill-rule="nonzero"/>
	</g>
	<g opacity="0.600000">
		<path id="Vector" d="M97.56 1L94.78 1C91.66 1 89.64 3.12 89.64 6.41L89.64 8.91L86.85 8.91C86.61 8.91 86.41 9.11 86.41 9.35L86.41 12.97C86.41 13.22 86.61 13.42 86.85 13.42L89.64 13.42L89.64 22.55C89.64 22.79 89.84 23 90.08 23L93.72 23C93.97 23 94.16 22.79 94.16 22.55L94.16 13.42L97.43 13.42C97.67 13.42 97.86 13.22 97.86 12.97L97.86 9.35C97.86 9.24 97.82 9.12 97.74 9.04C97.65 8.95 97.54 8.91 97.43 8.91L94.16 8.91L94.16 6.79C94.16 5.77 94.4 5.26 95.69 5.26L97.56 5.25C97.8 5.25 97.99 5.05 97.99 4.81L97.99 1.45C97.99 1.2 97.8 1 97.56 1Z" fill="#FFFFFF" fill-opacity="1.000000" fill-rule="nonzero"/>
	</g>
	<g opacity="0.600000">
		<path id="Vector" d="M142.5 5.77C141.72 6.09 140.89 6.32 140.02 6.42C140.91 5.91 141.59 5.1 141.92 4.14C141.08 4.61 140.16 4.95 139.18 5.14C138.39 4.33 137.27 3.83 136.03 3.83C133.65 3.83 131.73 5.68 131.73 7.96C131.73 8.28 131.76 8.6 131.84 8.9C128.26 8.73 125.08 7.08 122.96 4.59C122.59 5.2 122.38 5.91 122.38 6.66C122.38 8.09 123.14 9.36 124.29 10.09C123.59 10.07 122.92 9.89 122.34 9.58L122.34 9.63C122.34 11.63 123.83 13.29 125.8 13.67C125.43 13.77 125.05 13.82 124.66 13.82C124.38 13.82 124.11 13.79 123.85 13.74C124.4 15.38 125.99 16.57 127.87 16.61C126.4 17.71 124.54 18.37 122.52 18.37C122.18 18.37 121.83 18.35 121.5 18.31C123.4 19.49 125.67 20.17 128.1 20.17C136.02 20.17 140.35 13.88 140.35 8.43L140.34 7.9C141.19 7.32 141.92 6.59 142.5 5.77Z" fill="#FFFFFF" fill-opacity="1.000000" fill-rule="nonzero"/>
	</g>
	<g opacity="0.600000">
		<path id="Subtract" d="" fill="#FFFFFF" fill-opacity="1.000000" fill-rule="nonzero"/>
	</g>
</svg>
