<svg width="142.000000" height="24.000000" viewBox="0 0 142 24" fill="none" xmlns="http://www.w3.org/2000/svg" xmlns:xlink="http://www.w3.org/1999/xlink">
	<desc>
			Created with Pixso.
	</desc>
	<defs>
		<clipPath id="clip42_2332">
			<rect width="142.000000" height="24.000000" fill="white" fill-opacity="0"/>
		</clipPath>
	</defs>
	<g clip-path="url(#clip42_2332)">
		<path d="M0 12.1C0 5.45 3.6 1.41 9.5 1.41C13.98 1.41 17.58 4.14 18.24 8.18C18.35 8.61 18.02 8.94 17.58 8.94L14.74 8.94C14.41 8.94 14.2 8.72 14.09 8.4C13.54 6.32 11.79 5.01 9.5 5.01C6.33 5.01 4.36 7.74 4.36 12.1C4.36 16.47 6.33 19.19 9.61 19.19C11.9 19.19 13.54 18 14.2 16.03C14.3 15.7 14.52 15.49 14.85 15.49L17.69 15.49C18.13 15.49 18.45 15.92 18.35 16.25C17.69 20.18 14.2 22.79 9.61 22.79C3.6 22.79 0 18.65 0 12.1ZM86.29 21.49L86.29 6C86.29 5.67 86.07 5.45 85.74 5.45L80.94 5.45C80.5 5.45 80.06 5.12 80.06 4.58L80.06 2.72C80.06 2.29 80.39 1.85 80.94 1.85L95.79 1.85C96.23 1.85 96.66 2.18 96.66 2.72L96.66 4.58C96.66 5.01 96.34 5.45 95.79 5.45L90.98 5.45C90.66 5.45 90.44 5.67 90.44 6L90.44 21.59C90.44 22.03 90.11 22.36 89.67 22.36L86.94 22.36C86.62 22.25 86.29 21.92 86.29 21.49ZM23.37 22.25L26.54 22.25C26.87 22.25 27.19 22.03 27.08 21.81L27.08 15.38C27.08 15.05 27.3 14.83 27.63 14.83L30.14 14.83C30.47 14.83 30.8 14.94 30.91 15.27L34.08 21.81C34.18 22.03 34.4 22.14 34.62 22.14L38.23 22.14C38.55 22.14 38.88 21.7 38.66 21.38L35.28 14.94C35.06 14.61 35.17 14.07 35.6 13.85C37.46 12.76 38.55 10.69 38.55 8.4C38.55 4.47 35.82 1.96 31.34 1.96L23.7 1.96C23.26 1.96 22.82 2.4 22.82 2.83L22.82 21.7C22.82 22.03 23.04 22.25 23.37 22.25ZM56.25 22.25L44.23 22.25C43.8 22.25 43.47 21.92 43.47 21.49L43.47 2.72C43.47 2.29 43.8 1.96 44.23 1.96L56.25 1.96C56.69 1.96 57.01 2.29 57.01 2.72L57.01 4.8C57.01 5.23 56.69 5.56 56.25 5.56L48.28 5.56C47.95 5.56 47.73 5.78 47.73 6.1L47.73 9.81C47.73 10.14 47.95 10.36 48.28 10.36L55.7 10.36C56.14 10.36 56.47 10.69 56.47 11.12L56.47 12.98C56.47 13.41 56.14 13.74 55.7 13.74L48.28 13.74C47.95 13.74 47.73 13.96 47.73 14.29L47.73 18.43C47.73 18.76 47.95 18.98 48.28 18.98L56.25 18.98C56.69 18.98 57.01 19.3 57.01 19.74L57.01 21.81C57.01 21.92 56.69 22.25 56.25 22.25ZM66.95 17.34L73.18 17.34C73.4 17.34 73.73 17.56 73.73 17.78L74.93 21.81C75.04 22.03 75.25 22.25 75.58 22.25L78.75 22.25C79.19 22.25 79.51 21.81 79.41 21.38L72.85 2.4C72.74 2.18 72.52 1.96 72.2 1.96L68.16 1.96C67.83 1.96 67.61 2.18 67.5 2.4L60.95 21.38C60.84 21.81 61.16 22.25 61.6 22.25L64.44 22.25C64.77 22.25 64.99 22.14 65.1 21.81L66.3 17.78C66.41 17.56 66.63 17.34 66.95 17.34ZM101.36 22.25L113.38 22.25C113.81 22.25 114.14 21.92 114.14 21.81L114.14 19.74C114.14 19.3 113.81 18.98 113.38 18.98L105.4 18.98C105.08 18.98 104.86 18.76 104.86 18.43L104.86 14.29C104.86 13.96 105.08 13.74 105.4 13.74L112.83 13.74C113.27 13.74 113.6 13.41 113.6 12.98L113.6 11.12C113.6 10.69 113.27 10.36 112.83 10.36L105.4 10.36C105.08 10.36 104.86 10.14 104.86 9.81L104.86 6.1C104.86 5.78 105.08 5.56 105.4 5.56L113.38 5.56C113.81 5.56 114.14 5.23 114.14 4.8L114.14 2.72C114.14 2.29 113.81 1.96 113.38 1.96L101.36 1.96C100.92 1.96 100.6 2.29 100.6 2.72L100.6 21.49C100.6 21.92 100.92 22.25 101.36 22.25ZM27.74 11.67C27.41 11.67 27.19 11.45 27.19 11.12L27.3 11.12L27.3 5.89C27.3 5.56 27.52 5.34 27.85 5.34L31.02 5.34C33.09 5.34 34.4 6.54 34.4 8.5C34.4 10.47 33.2 11.67 31.02 11.67L27.74 11.67ZM72.31 14.18L67.83 14.18C67.61 14.18 67.5 13.96 67.61 13.74L70.01 6.1L70.23 6.1L72.63 13.74C72.63 13.96 72.52 14.18 72.31 14.18Z" fill="#FFFFFF" fill-opacity="1.000000" fill-rule="evenodd"/>
		<path d="M121.79 1.74L128.56 10.58C129.32 11.45 129.32 12.76 128.56 13.41L121.79 22.25C121.35 22.69 120.8 22.91 120.26 22.91C119.71 22.91 119.17 22.69 118.73 22.25C117.96 21.38 117.96 20.07 118.73 19.2L124.08 12L118.73 4.8C117.96 3.92 117.96 2.61 118.73 1.74C119.17 1.31 119.71 1.09 120.26 1.09C120.8 1.09 121.35 1.31 121.79 1.74ZM138.22 1.74L131.45 10.58C130.68 11.45 130.68 12.76 131.45 13.41L138.22 22.25C138.66 22.69 139.2 22.91 139.75 22.91C140.29 22.91 140.84 22.69 141.28 22.25C142.04 21.38 142.04 20.07 141.28 19.2L135.92 12L141.28 4.8C142.04 3.92 142.04 2.61 141.28 1.74C140.84 1.31 140.29 1.09 139.75 1.09C139.2 1.09 138.66 1.31 138.22 1.74Z" fill="#FF5A30" fill-opacity="1.000000" fill-rule="evenodd"/>
	</g>
</svg>
