<svg width="48.000000" height="48.000000" viewBox="0 0 48 48" fill="none" xmlns="http://www.w3.org/2000/svg" xmlns:xlink="http://www.w3.org/1999/xlink">
	<desc>
			Created with Pixso.
	</desc>
	<defs>
		<clipPath id="clip8_858">
			<rect width="48.000000" height="48.000000" fill="white" fill-opacity="0"/>
		</clipPath>
	</defs>
	<g clip-path="url(#clip8_858)">
		<path d="M7 44L1.5 44C0.671875 44 0 43.3281 0 42.5L0 25.5C0 24.6719 0.671875 24 1.5 24C8.51172 24 11.7764 26.4336 11.9102 26.5371C12.3936 26.9082 12.6084 27.5332 12.4482 28.1211L8.44824 42.8945C8.27246 43.5469 7.67773 44 7 44ZM3 41L5.85156 41L9.24805 28.457C8.20215 27.9648 6.1582 27.2285 3 27.0449L3 41Z" fill="#FF5A30" fill-opacity="1.000000" fill-rule="nonzero"/>
		<path d="M26 48C21.4824 48 13.1543 44.543 6.96191 41.6387C6.21191 41.2852 5.89062 40.3926 6.24219 39.6426C6.5918 38.8926 7.48828 38.5664 8.23633 38.9199C16.4766 42.7852 22.9521 45 26 45C30.0566 45 39.2646 40.6172 44.0898 38.0898C43.5342 37.7715 42.7061 37.5 41.5 37.5C39.7402 37.5 37.5703 38.2207 35.4727 38.916C34.79 39.1426 34.1104 39.3672 33.4365 39.5742C31.9521 40.0312 30.2002 40.5 28.498 40.5C24.2842 40.5 18.7197 38.4961 18.4863 38.4102C17.7061 38.127 17.3047 37.2656 17.5879 36.4883C17.8721 35.707 18.7344 35.3105 19.5098 35.5898C19.5625 35.6094 24.8145 37.5 28.498 37.5C29.8105 37.5 31.3564 37.0762 32.5566 36.7051C33.208 36.5059 33.8662 36.2871 34.5244 36.0703C36.8486 35.2988 39.25 34.5 41.4961 34.5C46.4541 34.5 47.832 37.8027 47.8887 37.9434C48.1699 38.6465 47.8818 39.4473 47.2207 39.8145C46.6201 40.1484 32.3145 48 26 48Z" fill="#FF5A30" fill-opacity="1.000000" fill-rule="nonzero"/>
		<path d="M33 39.6797C32.1719 39.6797 31.5 39.0078 31.5 38.1797L31.5 37.2793C31.5 36.0977 30.6582 35.0664 29.5 34.8301L10.2373 30.8887C9.42773 30.7227 8.90332 29.9316 9.06934 29.1191C9.23535 28.3066 10.0293 27.7891 10.8398 27.9512L30.1016 31.8906C32.6494 32.4121 34.5 34.6797 34.5 37.2812L34.5 38.1816C34.5 39.0078 33.8281 39.6797 33 39.6797Z" fill="#FF5A30" fill-opacity="1.000000" fill-rule="nonzero"/>
		<path d="M36 28.002C35.7998 28.002 35.6016 27.9609 35.4141 27.8809C34.9482 27.6836 24 22.918 24 13.1094L24 5.07227C24 4.43164 24.4082 3.86133 25.0176 3.65234L35.5176 0.0800781C35.8301 -0.0273438 36.1699 -0.0273438 36.4824 0.0800781L46.9824 3.65234C47.5918 3.85938 48 4.42969 48 5.07227L48 13.1094C48 22.918 37.0518 27.6855 36.5859 27.8828C36.3984 27.9609 36.2002 28.002 36 28.002ZM27 6.14648L27 13.1094C27 19.8047 33.9102 23.791 35.998 24.8418C38.082 23.7852 45 19.7793 45 13.1094L45 6.14648L36 3.08594L27 6.14648Z" fill="#FF5A30" fill-opacity="1.000000" fill-rule="nonzero"/>
		<path d="M35.499 19C35.1035 19 34.7197 18.8418 34.4395 18.5605L30.4395 14.5605C29.8535 13.9746 29.8535 13.0234 30.4395 12.4375C31.0254 11.8516 31.9756 11.8516 32.5615 12.4375L35.3398 15.2168L40.2998 8.59961C40.791 7.9375 41.7334 7.80273 42.3994 8.30078C43.0615 8.79883 43.1953 9.73828 42.6973 10.4004L36.6973 18.4004C36.4375 18.748 36.0391 18.9668 35.6035 18.9961C35.5693 19 35.5352 19 35.499 19Z" fill="#FF5A30" fill-opacity="1.000000" fill-rule="nonzero"/>
	</g>
</svg>
