<svg width="48.000000" height="48.000000" viewBox="0 0 48 48" fill="none" xmlns="http://www.w3.org/2000/svg" xmlns:xlink="http://www.w3.org/1999/xlink">
	<desc>
			Created with Pixso.
	</desc>
	<defs>
		<clipPath id="clip8_819">
			<rect width="48.000000" height="48.000000" fill="white" fill-opacity="0"/>
		</clipPath>
	</defs>
	<g clip-path="url(#clip8_819)">
		<path d="M44.0166 29.7188C44.6855 28.9707 45.0938 27.9844 45.0938 26.9062C45.0938 24.5801 43.2012 22.6875 40.875 22.6875L32.6865 22.6875C33.498 20.2266 33.8438 16.9609 33.8438 15.5625L33.8438 14.1562C33.8438 11.0547 31.3203 8.53125 28.2188 8.53125L26.8125 8.53125C26.168 8.53125 25.6055 8.9707 25.4482 9.5957L24.6826 12.6602C23.6094 16.9531 20.2012 21.6875 16.6748 22.5488C16.0566 20.9844 14.5312 19.875 12.75 19.875L4.3125 19.875C3.53613 19.875 2.90625 20.5059 2.90625 21.2812L2.90625 46.5938C2.90625 47.3691 3.53613 48 4.3125 48L12.75 48C14.4268 48 15.8789 47.0156 16.5586 45.5957L21.3896 47.2051C22.9697 47.7324 24.6162 48 26.2822 48L38.0625 48C40.3887 48 42.2812 46.1074 42.2812 43.7812C42.2812 43.2324 42.1758 42.707 41.9854 42.2266C43.7734 41.7383 45.0938 40.0996 45.0938 38.1562C45.0938 37.0781 44.6855 36.0918 44.0166 35.3438C44.6855 34.5957 45.0938 33.6094 45.0938 32.5312C45.0938 31.4531 44.6855 30.4668 44.0166 29.7188ZM14.1562 43.7812C14.1562 44.5566 13.5254 45.1875 12.75 45.1875L5.71875 45.1875L5.71875 22.6875L12.75 22.6875C13.5254 22.6875 14.1562 23.3184 14.1562 24.0938L14.1562 43.7812ZM38.0625 31.125L40.875 31.125C41.6504 31.125 42.2812 31.7559 42.2812 32.5312C42.2812 33.3066 41.6504 33.9375 40.875 33.9375L38.0625 33.9375C37.2861 33.9375 36.6562 34.5684 36.6562 35.3438C36.6562 36.1191 37.2861 36.75 38.0625 36.75L40.875 36.75C41.6504 36.75 42.2812 37.3809 42.2812 38.1562C42.2812 38.9316 41.6504 39.5625 40.875 39.5625L38.0625 39.5625C37.2861 39.5625 36.6562 40.1934 36.6562 40.9688C36.6562 41.7441 37.2861 42.375 38.0625 42.375C38.8379 42.375 39.4688 43.0059 39.4688 43.7812C39.4688 44.5566 38.8379 45.1875 38.0625 45.1875L26.2822 45.1875C24.9189 45.1875 23.5713 44.9688 22.2783 44.5371L16.9688 42.7676L16.9688 25.3672C19.1748 24.9473 21.334 23.5508 23.2832 21.2637C25.1855 19.0312 26.7295 16.0703 27.4102 13.3438L27.9102 11.3438L28.2188 11.3438C29.7695 11.3438 31.0312 12.6055 31.0312 14.1562L31.0312 15.5625C31.0312 17.4492 30.4404 21.0703 29.6846 22.6875L26.8125 22.6875C26.0361 22.6875 25.4062 23.3184 25.4062 24.0938C25.4062 24.8691 26.0361 25.5 26.8125 25.5L40.875 25.5C41.6504 25.5 42.2812 26.1309 42.2812 26.9062C42.2812 27.6816 41.6504 28.3125 40.875 28.3125L38.0625 28.3125C37.2861 28.3125 36.6562 28.9434 36.6562 29.7188C36.6562 30.4941 37.2861 31.125 38.0625 31.125Z" fill="#FF5A30" fill-opacity="1.000000" fill-rule="nonzero"/>
		<path d="M11.3438 40.9688C11.3438 41.7461 10.7139 42.375 9.9375 42.375C9.16113 42.375 8.53125 41.7461 8.53125 40.9688C8.53125 40.1914 9.16113 39.5625 9.9375 39.5625C10.7139 39.5625 11.3438 40.1914 11.3438 40.9688Z" fill="#FF5A30" fill-opacity="1.000000" fill-rule="evenodd"/>
		<path d="M29.625 0C28.8486 0 28.2188 0.628906 28.2188 1.40625L28.2188 4.3125C28.2188 5.08984 28.8486 5.71875 29.625 5.71875C30.4014 5.71875 31.0312 5.08984 31.0312 4.3125L31.0312 1.40625C31.0312 0.628906 30.4014 0 29.625 0Z" fill="#FF5A30" fill-opacity="1.000000" fill-rule="nonzero"/>
		<path d="M23.6592 6.20117L21.6699 4.21289C21.1211 3.66406 20.2305 3.66406 19.6816 4.21289C19.1318 4.76172 19.1318 5.65234 19.6816 6.20117L21.6699 8.18945C22.2197 8.73828 23.1094 8.74023 23.6592 8.18945C24.208 7.64062 24.208 6.75 23.6592 6.20117Z" fill="#FF5A30" fill-opacity="1.000000" fill-rule="nonzero"/>
		<path d="M39.5693 4.21289C39.0195 3.66406 38.1299 3.66406 37.5801 4.21289L35.5918 6.20117C35.042 6.75 35.042 7.64062 35.5918 8.18945C36.1406 8.73828 37.0312 8.74023 37.5801 8.18945L39.5693 6.20117C40.1182 5.65234 40.1182 4.76172 39.5693 4.21289Z" fill="#FF5A30" fill-opacity="1.000000" fill-rule="nonzero"/>
	</g>
</svg>
