<svg width="48.000000" height="48.000000" viewBox="0 0 48 48" fill="none" xmlns="http://www.w3.org/2000/svg" xmlns:xlink="http://www.w3.org/1999/xlink">
	<desc>
			Created with Pixso.
	</desc>
	<defs>
		<clipPath id="clip8_866">
			<rect width="48.000000" height="48.000000" fill="white" fill-opacity="0"/>
		</clipPath>
	</defs>
	<g clip-path="url(#clip8_866)">
		<path d="M38.0537 2.08984C31.8848 1.44141 26.3379 5.93359 25.6895 12.1016L24.5625 22.8242C24.4814 23.5977 25.042 24.2891 25.8135 24.3711L26.2803 24.4199L25.1045 35.6074C24.5635 40.748 28.3066 45.3711 33.4482 45.9102C38.5889 46.4512 43.2109 42.709 43.751 37.5684L44.9277 26.3789L45.3936 26.4277C46.166 26.5098 46.8574 25.9492 46.9395 25.1758L48.0664 14.4551C48.7148 8.28516 44.2227 2.73828 38.0537 2.08984ZM37.7598 4.88672C42.3867 5.37305 45.7549 9.5332 45.2686 14.1602L44.877 17.8906L28.0947 16.125L28.4863 12.3965C28.9727 7.76953 33.1328 4.40039 37.7598 4.88672ZM27.5068 21.7207L27.8008 18.9238L44.583 20.6875L44.2891 23.4844L27.5068 21.7207ZM40.9541 37.2734C40.5762 40.873 37.3408 43.4922 33.7422 43.1133C30.1436 42.7363 27.5234 39.5 27.9014 35.9023L29.0771 24.7129L42.1299 26.0859L40.9541 37.2734Z" fill="#FF5A30" fill-opacity="1.000000" fill-rule="nonzero"/>
		<path d="M32.1709 40.1191L35.9004 40.5117C36.6729 40.5938 37.3652 40.0332 37.4463 39.2598C37.5273 38.4883 36.9668 37.7969 36.1943 37.7148L32.4648 37.3223C31.6924 37.2422 31.001 37.8027 30.9189 38.5742C30.8379 39.3477 31.3984 40.0391 32.1709 40.1191Z" fill="#FF5A30" fill-opacity="1.000000" fill-rule="nonzero"/>
		<path d="M9.94727 2.08984C3.77832 2.73828 -0.713867 8.28516 -0.0654297 14.4531L1.06152 25.1758C1.14258 25.9492 1.83496 26.5098 2.60742 26.4277L3.07324 26.3789L4.24902 37.5664C4.79004 42.709 9.41211 46.4512 14.5527 45.9102C19.6943 45.3711 23.4365 40.748 22.8965 35.6074L21.7207 24.418L22.1865 24.3691C22.959 24.2891 23.5195 23.5957 23.4385 22.8242L22.3115 12.1016C21.6631 5.93359 16.1162 1.44141 9.94727 2.08984ZM3.71191 23.4844L3.41797 20.6875L20.2002 18.9219L20.4941 21.7207L3.71191 23.4844ZM20.0996 35.9004C20.4775 39.5 17.8574 42.7363 14.2588 43.1133C10.6602 43.4922 7.4248 40.8711 7.04688 37.2734L5.87012 26.084L18.9238 24.7129L20.0996 35.9004ZM19.9062 16.125L3.12402 17.8887L2.73145 14.1602C2.24512 9.5332 5.61426 5.37305 10.2412 4.88672C14.8682 4.40039 19.0283 7.76953 19.5146 12.3965L19.9062 16.125Z" fill="#FF5A30" fill-opacity="1.000000" fill-rule="nonzero"/>
		<path d="M12.1006 40.5137L15.8301 40.1211C16.6025 40.041 17.1631 39.3477 17.082 38.5762C17.001 37.8027 16.3086 37.2422 15.5361 37.3242L11.8066 37.7168C11.0342 37.7969 10.4736 38.4902 10.5557 39.2617C10.6367 40.0352 11.3281 40.5938 12.1006 40.5137Z" fill="#FF5A30" fill-opacity="1.000000" fill-rule="nonzero"/>
	</g>
</svg>
