<svg width="204.000000" height="106.000000" viewBox="0 0 204 106" fill="none" xmlns="http://www.w3.org/2000/svg" xmlns:xlink="http://www.w3.org/1999/xlink">
	<desc>
			Created with Pixso.
	</desc>
	<defs>
		<clipPath id="clip11_762">
			<rect id="ic-plan" width="52.000000" height="52.000000" transform="translate(76.000000 0.000000)" fill="white" fill-opacity="0"/>
		</clipPath>
		<clipPath id="clip11_761">
			<rect id="inner" width="204.000000" height="106.000000" fill="white" fill-opacity="0"/>
		</clipPath>
	</defs>
	<g clip-path="url(#clip11_761)">
		<g clip-path="url(#clip11_762)">
			<path id="Vector" d="M121.906 3.14844C119.655 3.14844 117.686 4.375 116.63 6.19531L77.5234 6.19531C76.6816 6.19531 76 6.87695 76 7.71875L76 47.3281C76 48.1699 76.6816 48.8516 77.5234 48.8516L121.906 48.8516C125.267 48.8516 128 46.1172 128 42.7578L128 9.24219C128 5.88281 125.267 3.14844 121.906 3.14844ZM121.906 45.8047C121.311 45.8047 79.6016 45.8047 79.0469 45.8047L79.0469 9.24219L115.812 9.24219L115.812 42.7578C115.812 43.5996 116.494 44.2812 117.336 44.2812C118.178 44.2812 118.859 43.5996 118.859 42.7578C118.859 41.0781 120.227 39.7109 121.906 39.7109C123.586 39.7109 124.953 41.0781 124.953 42.7578C124.953 44.4375 123.586 45.8047 121.906 45.8047ZM124.953 37.4824C124.057 36.9629 123.016 36.6641 121.906 36.6641C120.797 36.6641 119.756 36.9629 118.859 37.4824L118.859 9.24219C118.859 7.5625 120.227 6.19531 121.906 6.19531C123.586 6.19531 124.953 7.5625 124.953 9.24219L124.953 37.4824Z" fill="#FF5A30" fill-opacity="1.000000" fill-rule="nonzero"/>
			<path id="Vector" d="M111.141 12.2891L83.7188 12.2891C82.877 12.2891 82.1953 12.9707 82.1953 13.8125L82.1953 41.2344C82.1953 42.0762 82.877 42.7578 83.7188 42.7578L98.9531 42.7578C99.3574 42.7578 99.7441 42.5977 100.03 42.3125C100.316 42.0254 100.477 41.6387 100.477 41.2344L100.477 38.1875C100.477 36.2012 101.75 34.5078 103.523 33.8789L103.523 41.2344C103.523 42.0762 104.205 42.7578 105.047 42.7578L111.141 42.7578C111.982 42.7578 112.664 42.0762 112.664 41.2344L112.664 13.8125C112.664 12.9707 111.982 12.2891 111.141 12.2891ZM109.617 39.7109L106.57 39.7109L106.57 32.0938C106.57 31.252 105.889 30.5703 105.047 30.5703C100.847 30.5703 97.4297 33.9883 97.4297 38.1875L97.4297 39.7109L85.2422 39.7109L85.2422 30.5703L91.3359 30.5703L91.3359 35.1406C91.3359 35.9824 92.0176 36.6641 92.8594 36.6641C93.7012 36.6641 94.3828 35.9824 94.3828 35.1406L94.3828 29.0469C94.3828 28.2051 93.7012 27.5234 92.8594 27.5234L85.2422 27.5234L85.2422 15.3359L94.3828 15.3359L94.3828 21.4297L89.8125 21.4297C88.9707 21.4297 88.2891 22.1113 88.2891 22.9531C88.2891 23.7949 88.9707 24.4766 89.8125 24.4766L95.9062 24.4766L102 24.4766C102.842 24.4766 103.523 23.7949 103.523 22.9531C103.523 22.1113 102.842 21.4297 102 21.4297L97.4297 21.4297L97.4297 15.3359L109.617 15.3359L109.617 39.7109Z" fill="#FF5A30" fill-opacity="1.000000" fill-rule="nonzero"/>
		</g>
		<path id="Project Development" d="M6.09171 83.9814Q9.1923 83.9814 10.8476 85.0703Q12.5077 86.1592 12.5077 88.6396Q12.5077 91.1396 10.828 92.2529Q9.14835 93.3613 6.02824 93.3613L5.05167 93.3613L5.05167 98L1.93156 98L1.93156 84.3379Q2.95206 84.1377 4.08976 84.0596Q5.23234 83.9814 6.09171 83.9814ZM6.29191 86.6377Q5.95011 86.6377 5.61808 86.6621Q5.29093 86.6816 5.05167 86.7012L5.05167 90.7002L6.02824 90.7002Q7.64933 90.7002 8.46964 90.2607Q9.28996 89.8213 9.28996 88.6201Q9.28996 88.0391 9.07999 87.6631Q8.87003 87.2822 8.47941 87.0527Q8.08878 86.8184 7.52726 86.7305Q6.97062 86.6377 6.29191 86.6377ZM20.9493 90.1191Q20.5489 90.0215 20.0069 89.9141Q19.4698 89.8018 18.8496 89.8018Q18.5713 89.8018 18.1807 89.8506Q17.7901 89.8994 17.5899 89.958L17.5899 98L14.6114 98L14.6114 88.0391Q15.4121 87.7607 16.501 87.5117Q17.5899 87.2578 18.9278 87.2578Q19.1719 87.2578 19.5088 87.292Q19.8506 87.3213 20.1875 87.3701Q20.5293 87.4189 20.8662 87.4922Q21.208 87.5605 21.4522 87.6582L20.9493 90.1191ZM32.6902 92.7217Q32.6902 93.9619 32.3289 94.9922Q31.9676 96.0176 31.2889 96.75Q30.6101 97.4824 29.658 97.8828Q28.7107 98.2783 27.5291 98.2783Q26.3719 98.2783 25.4197 97.8828Q24.4676 97.4824 23.7889 96.75Q23.1101 96.0176 22.7293 94.9922Q22.3484 93.9619 22.3484 92.7217Q22.3484 91.4814 22.7391 90.4609Q23.1297 89.4404 23.8182 88.7227Q24.5115 88 25.4588 87.5996Q26.4109 87.1992 27.5291 87.1992Q28.6717 87.1992 29.6189 87.5996Q30.5711 88 31.2498 88.7227Q31.9285 89.4404 32.3094 90.4609Q32.6902 91.4814 32.6902 92.7217ZM29.6482 92.7217Q29.6482 91.3398 29.0965 90.5488Q28.5496 89.7578 27.5291 89.7578Q26.5086 89.7578 25.9471 90.5488Q25.3904 91.3398 25.3904 92.7217Q25.3904 94.0986 25.9471 94.9092Q26.5086 95.7197 27.5291 95.7197Q28.5496 95.7197 29.0965 94.9092Q29.6482 94.0986 29.6482 92.7217ZM34.0099 101.701Q33.7316 101.701 33.1798 101.638Q32.6281 101.579 32.1496 101.418L32.55 99.001Q32.8478 99.0986 33.1017 99.1377Q33.3507 99.1816 33.7316 99.1816Q34.4298 99.1816 34.7082 98.7617Q34.9914 98.3418 34.9914 97.541L34.9914 87.4824L37.9699 87.4824L37.9699 97.6191Q37.9699 99.6992 36.9494 100.7Q35.9289 101.701 34.0099 101.701ZM38.2482 84.4404Q38.2482 85.2607 37.716 85.7295Q37.1886 86.1982 36.4709 86.1982Q35.7482 86.1982 35.216 85.7295Q34.6886 85.2607 34.6886 84.4404Q34.6886 83.6201 35.216 83.1514Q35.7482 82.6777 36.4709 82.6777Q37.1886 82.6777 37.716 83.1514Q38.2482 83.6201 38.2482 84.4404ZM40.2684 92.8193Q40.2684 91.418 40.6981 90.3682Q41.1278 89.3184 41.826 88.6201Q42.5292 87.9219 43.4374 87.5605Q44.3505 87.1992 45.3124 87.1992Q47.5487 87.1992 48.8475 88.5713Q50.1512 89.9385 50.1512 92.5996Q50.1512 92.8584 50.1317 93.1709Q50.1122 93.4785 50.0878 93.7178L43.33 93.7178Q43.4276 94.6406 44.1893 95.1826Q44.951 95.7197 46.2303 95.7197Q47.0507 95.7197 47.8368 95.5732Q48.6278 95.4219 49.1307 95.2021L49.5311 97.6191Q49.2919 97.7412 48.8915 97.8633Q48.4911 97.9805 47.9979 98.0684Q47.5096 98.1611 46.9481 98.2197Q46.3915 98.2783 45.83 98.2783Q44.4091 98.2783 43.3592 97.8584Q42.3094 97.4385 41.6161 96.7109Q40.9276 95.9785 40.5956 94.9824Q40.2684 93.9814 40.2684 92.8193ZM47.2704 91.6816Q47.2509 91.3008 47.1385 90.9395Q47.0311 90.5781 46.8016 90.2998Q46.5721 90.0215 46.2206 89.8408Q45.869 89.6602 45.3514 89.6602Q44.8485 89.6602 44.4872 89.8311Q44.1307 90.002 43.8915 90.2803Q43.6522 90.5586 43.5204 90.9297Q43.3885 91.3008 43.33 91.6816L47.2704 91.6816ZM51.9484 92.7412Q51.9484 91.5986 52.3195 90.5928Q52.6906 89.582 53.3889 88.8301Q54.092 88.0781 55.0881 87.6387Q56.0891 87.1992 57.3684 87.1992Q58.2082 87.1992 58.9064 87.3506Q59.6096 87.502 60.2687 87.7803L59.6486 90.1582Q59.2287 90.002 58.7258 89.8799Q58.2277 89.7578 57.6076 89.7578Q56.2892 89.7578 55.6398 90.5781Q54.9904 91.3984 54.9904 92.7412Q54.9904 94.1621 55.6008 94.9434Q56.2111 95.7197 57.7297 95.7197Q58.2717 95.7197 58.8918 95.6221Q59.5119 95.5195 60.0295 95.2998L60.4494 97.7412Q59.9318 97.9609 59.1506 98.1172Q58.3693 98.2783 57.4318 98.2783Q55.9914 98.2783 54.9514 97.8486Q53.9113 97.4189 53.2375 96.6816Q52.5685 95.9395 52.256 94.9287Q51.9484 93.918 51.9484 92.7412ZM62.3488 84.8604L65.3322 84.3818L65.3322 87.4824L68.9113 87.4824L68.9113 89.958L65.3322 89.958L65.3322 93.6592Q65.3322 94.6016 65.6594 95.1631Q65.9914 95.7197 66.9924 95.7197Q67.4709 95.7197 67.9787 95.6318Q68.4914 95.5391 68.9113 95.3779L69.3312 97.7021Q68.7892 97.9219 68.1301 98.0781Q67.4709 98.2393 66.509 98.2393Q65.2883 98.2393 64.4875 97.9121Q63.6916 97.5801 63.2082 96.9893Q62.7297 96.3984 62.5392 95.5586Q62.3488 94.7188 62.3488 93.6982L62.3488 84.8604ZM79.4517 95.4609Q79.6714 95.4805 79.9595 95.4902Q80.2476 95.5 80.648 95.5Q82.9917 95.5 84.1196 94.3232Q85.2476 93.1416 85.2476 91.0615Q85.2476 88.8789 84.1685 87.7607Q83.0894 86.6377 80.7505 86.6377Q80.4282 86.6377 80.0864 86.6523Q79.7495 86.6621 79.4517 86.7012L79.4517 95.4609ZM88.4702 91.0615Q88.4702 92.8584 87.9087 94.2012Q87.3521 95.5391 86.3218 96.4229Q85.2915 97.3018 83.8071 97.7412Q82.3277 98.1807 80.4917 98.1807Q79.6519 98.1807 78.5288 98.1074Q77.4107 98.0391 76.3316 97.8193L76.3316 84.3184Q77.4107 84.1182 78.5777 84.0498Q79.7495 83.9814 80.5894 83.9814Q82.3716 83.9814 83.8218 84.3818Q85.272 84.7822 86.312 85.6416Q87.3521 86.501 87.9087 87.8438Q88.4702 89.1816 88.4702 91.0615ZM90.3684 92.8193Q90.3684 91.418 90.7981 90.3682Q91.2278 89.3184 91.926 88.6201Q92.6292 87.9219 93.5374 87.5605Q94.4505 87.1992 95.4124 87.1992Q97.6487 87.1992 98.9475 88.5713Q100.251 89.9385 100.251 92.5996Q100.251 92.8584 100.232 93.1709Q100.212 93.4785 100.188 93.7178L93.43 93.7178Q93.5276 94.6406 94.2893 95.1826Q95.051 95.7197 96.3303 95.7197Q97.1507 95.7197 97.9368 95.5732Q98.7278 95.4219 99.2307 95.2021L99.6311 97.6191Q99.3919 97.7412 98.9915 97.8633Q98.5911 97.9805 98.0979 98.0684Q97.6096 98.1611 97.0481 98.2197Q96.4915 98.2783 95.93 98.2783Q94.5091 98.2783 93.4593 97.8584Q92.4094 97.4385 91.7161 96.7109Q91.0276 95.9785 90.6956 94.9824Q90.3684 93.9814 90.3684 92.8193ZM97.3704 91.6816Q97.3509 91.3008 97.2385 90.9395Q97.1311 90.5781 96.9016 90.2998Q96.6721 90.0215 96.3206 89.8408Q95.969 89.6602 95.4514 89.6602Q94.9485 89.6602 94.5872 89.8311Q94.2307 90.002 93.9915 90.2803Q93.7522 90.5586 93.6204 90.9297Q93.4885 91.3008 93.43 91.6816L97.3704 91.6816ZM105.408 98Q104.392 95.998 103.337 93.3223Q102.288 90.6416 101.35 87.4824L104.509 87.4824Q104.71 88.2588 104.978 89.1719Q105.252 90.0801 105.54 91.0127Q105.828 91.9404 106.116 92.8193Q106.409 93.6982 106.692 94.4209Q106.951 93.6982 107.249 92.8193Q107.551 91.9404 107.839 91.0127Q108.132 90.0801 108.401 89.1719Q108.67 88.2588 108.87 87.4824L111.951 87.4824Q111.008 90.6416 109.959 93.3223Q108.909 95.998 107.888 98L105.408 98ZM112.768 92.8193Q112.768 91.418 113.198 90.3682Q113.628 89.3184 114.326 88.6201Q115.029 87.9219 115.937 87.5605Q116.85 87.1992 117.812 87.1992Q120.049 87.1992 121.348 88.5713Q122.651 89.9385 122.651 92.5996Q122.651 92.8584 122.632 93.1709Q122.612 93.4785 122.588 93.7178L115.83 93.7178Q115.928 94.6406 116.689 95.1826Q117.451 95.7197 118.73 95.7197Q119.551 95.7197 120.337 95.5732Q121.128 95.4219 121.631 95.2021L122.031 97.6191Q121.792 97.7412 121.391 97.8633Q120.991 97.9805 120.498 98.0684Q120.01 98.1611 119.448 98.2197Q118.891 98.2783 118.33 98.2783Q116.909 98.2783 115.859 97.8584Q114.809 97.4385 114.116 96.7109Q113.428 95.9785 113.096 94.9824Q112.768 93.9814 112.768 92.8193ZM119.77 91.6816Q119.751 91.3008 119.639 90.9395Q119.531 90.5781 119.302 90.2998Q119.072 90.0215 118.721 89.8408Q118.369 89.6602 117.851 89.6602Q117.349 89.6602 116.987 89.8311Q116.631 90.002 116.391 90.2803Q116.152 90.5586 116.02 90.9297Q115.889 91.3008 115.83 91.6816L119.77 91.6816ZM129.151 98.2002Q127.852 98.1807 127.041 97.9219Q126.231 97.6582 125.757 97.1895Q125.288 96.7207 125.117 96.0518Q124.951 95.3779 124.951 94.5381L124.951 82.9609L127.93 82.4824L127.93 93.9424Q127.93 94.3379 127.988 94.6602Q128.052 94.9824 128.218 95.2021Q128.389 95.4219 128.706 95.5635Q129.029 95.7002 129.57 95.7393L129.151 98.2002ZM141.11 92.7217Q141.11 93.9619 140.749 94.9922Q140.388 96.0176 139.709 96.75Q139.03 97.4824 138.078 97.8828Q137.131 98.2783 135.949 98.2783Q134.792 98.2783 133.84 97.8828Q132.888 97.4824 132.209 96.75Q131.53 96.0176 131.149 94.9922Q130.768 93.9619 130.768 92.7217Q130.768 91.4814 131.159 90.4609Q131.55 89.4404 132.238 88.7227Q132.932 88 133.879 87.5996Q134.831 87.1992 135.949 87.1992Q137.092 87.1992 138.039 87.5996Q138.991 88 139.67 88.7227Q140.349 89.4404 140.729 90.4609Q141.11 91.4814 141.11 92.7217ZM138.068 92.7217Q138.068 91.3398 137.516 90.5488Q136.97 89.7578 135.949 89.7578Q134.929 89.7578 134.367 90.5488Q133.81 91.3398 133.81 92.7217Q133.81 94.0986 134.367 94.9092Q134.929 95.7197 135.949 95.7197Q136.97 95.7197 137.516 94.9092Q138.068 94.0986 138.068 92.7217ZM150.15 92.8193Q150.15 91.4424 149.53 90.6123Q148.909 89.7822 147.689 89.7822Q147.288 89.7822 146.947 89.8115Q146.61 89.8408 146.39 89.8799L146.39 95.2607Q146.668 95.4414 147.117 95.5635Q147.572 95.6807 148.031 95.6807Q150.15 95.6807 150.15 92.8193ZM153.192 92.7412Q153.192 93.9619 152.889 94.9629Q152.591 95.959 152.01 96.6816Q151.429 97.3994 150.57 97.7998Q149.71 98.2002 148.592 98.2002Q147.972 98.2002 147.43 98.0781Q146.888 97.9609 146.39 97.7412L146.39 101.701L143.411 101.701L143.411 87.8389Q143.812 87.7217 144.329 87.6143Q144.852 87.502 145.418 87.4238Q145.99 87.3408 146.58 87.292Q147.171 87.2383 147.708 87.2383Q149.012 87.2383 150.028 87.6289Q151.048 88.0195 151.746 88.7324Q152.449 89.4404 152.821 90.4609Q153.192 91.4814 153.192 92.7412ZM161.268 92.4189Q161.268 90.9785 160.897 90.3828Q160.53 89.7822 159.632 89.7822Q159.349 89.7822 159.046 89.8115Q158.748 89.8408 158.47 89.8799L158.47 98L155.491 98L155.491 87.8389Q155.872 87.7412 156.38 87.6338Q156.888 87.5215 157.459 87.4336Q158.03 87.3408 158.631 87.292Q159.232 87.2383 159.808 87.2383Q160.95 87.2383 161.658 87.5312Q162.371 87.8193 162.83 88.2197Q163.47 87.7607 164.3 87.502Q165.13 87.2383 165.828 87.2383Q167.088 87.2383 167.899 87.5898Q168.709 87.9414 169.188 88.5811Q169.671 89.2207 169.852 90.0996Q170.032 90.9785 170.032 92.0576L170.032 98L167.049 98L167.049 92.4189Q167.049 90.9785 166.678 90.3828Q166.312 89.7822 165.408 89.7822Q165.169 89.7822 164.739 89.9043Q164.31 90.0215 164.031 90.2021Q164.168 90.6611 164.207 91.1738Q164.251 91.6816 164.251 92.2578L164.251 98L161.268 98L161.268 92.4189ZM172.228 92.8193Q172.228 91.418 172.658 90.3682Q173.088 89.3184 173.786 88.6201Q174.489 87.9219 175.397 87.5605Q176.31 87.1992 177.272 87.1992Q179.509 87.1992 180.808 88.5713Q182.111 89.9385 182.111 92.5996Q182.111 92.8584 182.092 93.1709Q182.072 93.4785 182.048 93.7178L175.29 93.7178Q175.388 94.6406 176.149 95.1826Q176.911 95.7197 178.19 95.7197Q179.011 95.7197 179.797 95.5732Q180.588 95.4219 181.091 95.2021L181.491 97.6191Q181.252 97.7412 180.852 97.8633Q180.451 97.9805 179.958 98.0684Q179.47 98.1611 178.908 98.2197Q178.352 98.2783 177.79 98.2783Q176.369 98.2783 175.319 97.8584Q174.269 97.4385 173.576 96.7109Q172.888 95.9785 172.556 94.9824Q172.228 93.9814 172.228 92.8193ZM179.23 91.6816Q179.211 91.3008 179.099 90.9395Q178.991 90.5781 178.762 90.2998Q178.532 90.0215 178.181 89.8408Q177.829 89.6602 177.311 89.6602Q176.809 89.6602 176.447 89.8311Q176.091 90.002 175.852 90.2803Q175.612 90.5586 175.48 90.9297Q175.349 91.3008 175.29 91.6816L179.23 91.6816ZM184.411 87.8389Q185.168 87.6191 186.369 87.4287Q187.571 87.2383 188.889 87.2383Q190.232 87.2383 191.12 87.5898Q192.009 87.9414 192.527 88.5811Q193.049 89.2207 193.269 90.0996Q193.489 90.9785 193.489 92.0576L193.489 98L190.51 98L190.51 92.4189Q190.51 90.9785 190.129 90.3828Q189.748 89.7822 188.708 89.7822Q188.391 89.7822 188.03 89.8115Q187.668 89.8408 187.39 89.8799L187.39 98L184.411 98L184.411 87.8389ZM196.089 84.8604L199.072 84.3818L199.072 87.4824L202.651 87.4824L202.651 89.958L199.072 89.958L199.072 93.6592Q199.072 94.6016 199.399 95.1631Q199.731 95.7197 200.732 95.7197Q201.211 95.7197 201.719 95.6318Q202.231 95.5391 202.651 95.3779L203.071 97.7021Q202.529 97.9219 201.87 98.0781Q201.211 98.2393 200.249 98.2393Q199.028 98.2393 198.228 97.9121Q197.432 97.5801 196.948 96.9893Q196.47 96.3984 196.279 95.5586Q196.089 94.7188 196.089 93.6982L196.089 84.8604Z" fill="#1E212C" fill-opacity="1.000000" fill-rule="evenodd"/>
	</g>
</svg>
