<svg width="152.000000" height="114.000000" viewBox="0 0 152 114" fill="none" xmlns="http://www.w3.org/2000/svg" xmlns:xlink="http://www.w3.org/1999/xlink">
	<desc>
			Created with Pixso.
	</desc>
	<defs>
		<filter id="filter_11_798_dd" x="0.000000" y="0.000000" width="152.000000" height="114.000000" filterUnits="userSpaceOnUse" color-interpolation-filters="sRGB">
			<feFlood flood-opacity="0" result="BackgroundImageFix"/>
			<feColorMatrix in="SourceAlpha" type="matrix" values="0 0 0 0 0 0 0 0 0 0 0 0 0 0 0 0 0 0 127 0" result="hardAlpha"/>
			<feOffset dx="0" dy="4"/>
			<feGaussianBlur stdDeviation="1.33333"/>
			<feComposite in2="hardAlpha" operator="out" k2="-1" k3="1"/>
			<feColorMatrix type="matrix" values="0 0 0 0 0 0 0 0 0 0 0 0 0 0 0 0 0 0 0.25 0"/>
			<feBlend mode="normal" in2="BackgroundImageFix" result="effect_dropShadow_1"/>
			<feBlend mode="normal" in="SourceGraphic" in2="effect_dropShadow_1" result="shape"/>
		</filter>
		<clipPath id="clip11_796">
			<rect id="ic-pantone" width="52.000000" height="52.000000" transform="translate(50.000000 0.000000)" fill="white" fill-opacity="0"/>
		</clipPath>
		<clipPath id="clip11_798">
			<rect id="inner" width="144.000000" height="106.000000" transform="translate(4.000000 0.000000)" fill="white" fill-opacity="0"/>
		</clipPath>
	</defs>
	<g filter="url(#filter_11_798_dd)">
		<g clip-path="url(#clip11_798)">
			<g clip-path="url(#clip11_796)">
				<path id="Vector" d="M60.7656 36.6641C58.2451 36.6641 56.1953 38.7148 56.1953 41.2344C56.1953 43.7539 58.2451 45.8047 60.7656 45.8047C63.2861 45.8047 65.3359 43.7539 65.3359 41.2344C65.3359 38.7148 63.2861 36.6641 60.7656 36.6641ZM60.7656 42.7578C59.9258 42.7578 59.2422 42.0742 59.2422 41.2344C59.2422 40.3945 59.9258 39.7109 60.7656 39.7109C61.6055 39.7109 62.2891 40.3945 62.2891 41.2344C62.2891 42.0742 61.6055 42.7578 60.7656 42.7578Z" fill="#FFFFFF" fill-opacity="1.000000" fill-rule="nonzero"/>
				<path id="Vector" d="M99.25 30.9492C100.29 29.543 100.481 27.582 99.5361 25.9453L93.4453 15.2949C92.3916 13.4688 90.1699 12.6367 88.1885 13.166C88.6104 11.2695 87.7822 9.23438 86.0127 8.21289L75.458 2.11914C73.9512 1.25 72.1484 1.33789 70.7627 2.19531C69.96 0.880859 68.5107 0 66.8594 0L54.5703 0C52.0498 0 50 2.05078 50 4.57031C50 5.62695 50 46.2129 50 47.4297C50 49.9492 52.0498 52 54.5703 52C55.7539 52 91.6377 52 97.4297 52C99.9502 52 102 49.9492 102 47.4297L102 35.1406C102 33.2676 100.867 31.6543 99.25 30.9492ZM68.3828 47.4297C68.3828 48.2695 67.6992 48.9531 66.8594 48.9531L54.5703 48.9531C53.7305 48.9531 53.0469 48.2695 53.0469 47.4297C53.0469 46.7344 53.0469 34.2852 53.0469 33.6172L68.3828 33.6172L68.3828 47.4297ZM68.3828 30.5703L53.0469 30.5703L53.0469 18.2812L68.3828 18.2812L68.3828 30.5703ZM68.3828 15.2344L53.0469 15.2344L53.0469 4.57031C53.0469 3.73047 53.7305 3.04688 54.5703 3.04688L66.8594 3.04688C67.6992 3.04688 68.3828 3.73047 68.3828 4.57031L68.3828 15.2344ZM71.4297 6.05078L71.8535 5.31641C72.2734 4.58789 73.207 4.33789 73.9346 4.75781L84.4893 10.8516C85.2168 11.2715 85.4668 12.2051 85.0459 12.9355L83.2852 15.9941C83.2412 16.0605 83.2012 16.127 83.168 16.1992L71.4297 36.6035L71.4297 6.05078ZM71.4297 42.7129L85.6709 17.959L88.6152 16.2578C89.3623 15.8262 90.3857 16.0879 90.8037 16.8125L96.8945 27.4629C97.3154 28.1934 97.0703 29.1289 96.333 29.5547C95.2451 30.1836 72.501 43.3516 71.4297 43.9707L71.4297 42.7129ZM98.9531 47.4297C98.9531 48.2695 98.2695 48.9531 97.4297 48.9531L71.168 48.9531C71.3301 48.4941 71.4209 48.0039 71.4277 47.4922L95.3955 33.6172L97.4297 33.6172C98.2695 33.6172 98.9531 34.3008 98.9531 35.1406L98.9531 47.4297Z" fill="#FFFFFF" fill-opacity="1.000000" fill-rule="nonzero"/>
			</g>
			<path id="Interior Design" d="M5.89156 84.1377L9.01168 84.1377L9.01168 98L5.89156 98L5.89156 84.1377ZM12.0114 87.8389Q12.7682 87.6191 13.9694 87.4287Q15.1705 87.2383 16.4889 87.2383Q17.8317 87.2383 18.7204 87.5898Q19.609 87.9414 20.1266 88.5811Q20.6491 89.2207 20.8688 90.0996Q21.0885 90.9785 21.0885 92.0576L21.0885 98L18.11 98L18.11 92.4189Q18.11 90.9785 17.7291 90.3828Q17.3483 89.7822 16.3082 89.7822Q15.9909 89.7822 15.6295 89.8115Q15.2682 89.8408 14.9899 89.8799L14.9899 98L12.0114 98L12.0114 87.8389ZM23.6888 84.8604L26.6722 84.3818L26.6722 87.4824L30.2513 87.4824L30.2513 89.958L26.6722 89.958L26.6722 93.6592Q26.6722 94.6016 26.9994 95.1631Q27.3314 95.7197 28.3324 95.7197Q28.8109 95.7197 29.3187 95.6318Q29.8314 95.5391 30.2513 95.3779L30.6712 97.7021Q30.1293 97.9219 29.4701 98.0781Q28.8109 98.2393 27.849 98.2393Q26.6283 98.2393 25.8275 97.9121Q25.0316 97.5801 24.5482 96.9893Q24.0697 96.3984 23.8793 95.5586Q23.6888 94.7188 23.6888 93.6982L23.6888 84.8604ZM31.7684 92.8193Q31.7684 91.418 32.1981 90.3682Q32.6278 89.3184 33.3261 88.6201Q34.0292 87.9219 34.9374 87.5605Q35.8505 87.1992 36.8124 87.1992Q39.0487 87.1992 40.3475 88.5713Q41.6512 89.9385 41.6512 92.5996Q41.6512 92.8584 41.6317 93.1709Q41.6122 93.4785 41.5878 93.7178L34.83 93.7178Q34.9276 94.6406 35.6893 95.1826Q36.4511 95.7197 37.7304 95.7197Q38.5507 95.7197 39.3368 95.5732Q40.1278 95.4219 40.6307 95.2021L41.0311 97.6191Q40.7919 97.7412 40.3915 97.8633Q39.9911 97.9805 39.4979 98.0684Q39.0096 98.1611 38.4481 98.2197Q37.8915 98.2783 37.33 98.2783Q35.9091 98.2783 34.8593 97.8584Q33.8095 97.4385 33.1161 96.7109Q32.4276 95.9785 32.0956 94.9824Q31.7684 93.9814 31.7684 92.8193ZM38.7704 91.6816Q38.7509 91.3008 38.6386 90.9395Q38.5311 90.5781 38.3016 90.2998Q38.0721 90.0215 37.7206 89.8408Q37.369 89.6602 36.8514 89.6602Q36.3485 89.6602 35.9872 89.8311Q35.6307 90.002 35.3915 90.2803Q35.1522 90.5586 35.0204 90.9297Q34.8886 91.3008 34.83 91.6816L38.7704 91.6816ZM50.2893 90.1191Q49.8889 90.0215 49.3469 89.9141Q48.8098 89.8018 48.1896 89.8018Q47.9113 89.8018 47.5207 89.8506Q47.1301 89.8994 46.9299 89.958L46.9299 98L43.9514 98L43.9514 88.0391Q44.7521 87.7607 45.841 87.5117Q46.9299 87.2578 48.2678 87.2578Q48.5119 87.2578 48.8488 87.292Q49.1906 87.3213 49.5275 87.3701Q49.8693 87.4189 50.2062 87.4922Q50.548 87.5605 50.7922 87.6582L50.2893 90.1191ZM55.3699 98L52.3914 98L52.3914 87.4824L55.3699 87.4824L55.3699 98ZM55.6482 84.4404Q55.6482 85.2607 55.116 85.7295Q54.5886 86.1982 53.8709 86.1982Q53.1482 86.1982 52.616 85.7295Q52.0886 85.2607 52.0886 84.4404Q52.0886 83.6201 52.616 83.1514Q53.1482 82.6777 53.8709 82.6777Q54.5886 82.6777 55.116 83.1514Q55.6482 83.6201 55.6482 84.4404ZM68.0102 92.7217Q68.0102 93.9619 67.6489 94.9922Q67.2876 96.0176 66.6089 96.75Q65.9302 97.4824 64.978 97.8828Q64.0307 98.2783 62.8491 98.2783Q61.6919 98.2783 60.7397 97.8828Q59.7876 97.4824 59.1089 96.75Q58.4302 96.0176 58.0493 94.9922Q57.6684 93.9619 57.6684 92.7217Q57.6684 91.4814 58.0591 90.4609Q58.4497 89.4404 59.1382 88.7227Q59.8315 88 60.7788 87.5996Q61.7309 87.1992 62.8491 87.1992Q63.9917 87.1992 64.9389 87.5996Q65.8911 88 66.5698 88.7227Q67.2485 89.4404 67.6294 90.4609Q68.0102 91.4814 68.0102 92.7217ZM64.9682 92.7217Q64.9682 91.3398 64.4165 90.5488Q63.8696 89.7578 62.8491 89.7578Q61.8286 89.7578 61.2671 90.5488Q60.7104 91.3398 60.7104 92.7217Q60.7104 94.0986 61.2671 94.9092Q61.8286 95.7197 62.8491 95.7197Q63.8696 95.7197 64.4165 94.9092Q64.9682 94.0986 64.9682 92.7217ZM76.6493 90.1191Q76.2489 90.0215 75.7069 89.9141Q75.1698 89.8018 74.5496 89.8018Q74.2713 89.8018 73.8807 89.8506Q73.4901 89.8994 73.2899 89.958L73.2899 98L70.3114 98L70.3114 88.0391Q71.1121 87.7607 72.201 87.5117Q73.2899 87.2578 74.6278 87.2578Q74.8719 87.2578 75.2088 87.292Q75.5506 87.3213 75.8875 87.3701Q76.2293 87.4189 76.5662 87.4922Q76.908 87.5605 77.1522 87.6582L76.6493 90.1191ZM86.8717 95.4609Q87.0914 95.4805 87.3795 95.4902Q87.6676 95.5 88.068 95.5Q90.4117 95.5 91.5396 94.3232Q92.6676 93.1416 92.6676 91.0615Q92.6676 88.8789 91.5885 87.7607Q90.5094 86.6377 88.1705 86.6377Q87.8482 86.6377 87.5064 86.6523Q87.1695 86.6621 86.8717 86.7012L86.8717 95.4609ZM95.8902 91.0615Q95.8902 92.8584 95.3287 94.2012Q94.7721 95.5391 93.7418 96.4229Q92.7115 97.3018 91.2271 97.7412Q89.7477 98.1807 87.9117 98.1807Q87.0719 98.1807 85.9488 98.1074Q84.8307 98.0391 83.7516 97.8193L83.7516 84.3184Q84.8307 84.1182 85.9977 84.0498Q87.1695 83.9814 88.0094 83.9814Q89.7916 83.9814 91.2418 84.3818Q92.692 84.7822 93.732 85.6416Q94.7721 86.501 95.3287 87.8438Q95.8902 89.1816 95.8902 91.0615ZM97.7884 92.8193Q97.7884 91.418 98.2181 90.3682Q98.6478 89.3184 99.3461 88.6201Q100.049 87.9219 100.957 87.5605Q101.87 87.1992 102.832 87.1992Q105.069 87.1992 106.368 88.5713Q107.671 89.9385 107.671 92.5996Q107.671 92.8584 107.652 93.1709Q107.632 93.4785 107.608 93.7178L100.85 93.7178Q100.948 94.6406 101.709 95.1826Q102.471 95.7197 103.75 95.7197Q104.571 95.7197 105.357 95.5732Q106.148 95.4219 106.651 95.2021L107.051 97.6191Q106.812 97.7412 106.411 97.8633Q106.011 97.9805 105.518 98.0684Q105.03 98.1611 104.468 98.2197Q103.911 98.2783 103.35 98.2783Q101.929 98.2783 100.879 97.8584Q99.8295 97.4385 99.1361 96.7109Q98.4476 95.9785 98.1156 94.9824Q97.7884 93.9814 97.7884 92.8193ZM104.79 91.6816Q104.771 91.3008 104.659 90.9395Q104.551 90.5781 104.322 90.2998Q104.092 90.0215 103.741 89.8408Q103.389 89.6602 102.871 89.6602Q102.369 89.6602 102.007 89.8311Q101.651 90.002 101.411 90.2803Q101.172 90.5586 101.04 90.9297Q100.909 91.3008 100.85 91.6816L104.79 91.6816ZM112.989 95.8613Q113.809 95.8613 114.146 95.7002Q114.488 95.5391 114.488 95.0801Q114.488 94.7188 114.049 94.4502Q113.609 94.1816 112.711 93.8398Q112.012 93.5811 111.441 93.3027Q110.87 93.0195 110.469 92.6289Q110.069 92.2383 109.849 91.7012Q109.63 91.1592 109.63 90.4023Q109.63 88.918 110.728 88.0586Q111.832 87.1992 113.751 87.1992Q114.708 87.1992 115.587 87.3701Q116.47 87.541 116.988 87.7412L116.47 90.0605Q115.948 89.8799 115.338 89.7432Q114.732 89.6016 113.97 89.6016Q112.569 89.6016 112.569 90.3779Q112.569 90.5586 112.628 90.7002Q112.691 90.8418 112.872 90.9736Q113.052 91.1006 113.36 91.252Q113.668 91.3984 114.151 91.5791Q115.128 91.9404 115.767 92.292Q116.412 92.6387 116.778 93.0488Q117.149 93.459 117.3 93.9619Q117.452 94.46 117.452 95.1191Q117.452 96.6816 116.28 97.4824Q115.108 98.2783 112.969 98.2783Q111.568 98.2783 110.635 98.0391Q109.708 97.7998 109.351 97.6387L109.849 95.2217Q110.611 95.5195 111.407 95.6904Q112.208 95.8613 112.989 95.8613ZM122.65 98L119.671 98L119.671 87.4824L122.65 87.4824L122.65 98ZM122.928 84.4404Q122.928 85.2607 122.396 85.7295Q121.869 86.1982 121.151 86.1982Q120.428 86.1982 119.896 85.7295Q119.369 85.2607 119.369 84.4404Q119.369 83.6201 119.896 83.1514Q120.428 82.6777 121.151 82.6777Q121.869 82.6777 122.396 83.1514Q122.928 83.6201 122.928 84.4404ZM127.99 92.3994Q127.99 94.8994 130.012 94.8994Q130.471 94.8994 130.871 94.7822Q131.272 94.6602 131.55 94.499L131.55 89.7383Q131.33 89.6992 131.028 89.6699Q130.73 89.6406 130.329 89.6406Q129.148 89.6406 128.567 90.4219Q127.99 91.1982 127.99 92.3994ZM134.529 96.6816Q134.529 99.2598 133.22 100.51Q131.911 101.76 129.172 101.76Q128.21 101.76 127.248 101.589Q126.291 101.418 125.471 101.14L125.988 98.6396Q126.692 98.918 127.458 99.0791Q128.23 99.2402 129.211 99.2402Q130.49 99.2402 131.018 98.6787Q131.55 98.1221 131.55 97.2383L131.55 96.8623Q131.071 97.082 130.559 97.1943Q130.051 97.3018 129.45 97.3018Q127.268 97.3018 126.106 96.0127Q124.948 94.7188 124.948 92.3994Q124.948 91.2422 125.31 90.29Q125.671 89.3379 126.36 88.6592Q127.048 87.9805 128.049 87.6094Q129.05 87.2383 130.31 87.2383Q130.852 87.2383 131.418 87.292Q131.989 87.3408 132.546 87.4238Q133.108 87.502 133.615 87.6143Q134.128 87.7217 134.529 87.8389L134.529 96.6816ZM137.331 87.8389Q138.088 87.6191 139.289 87.4287Q140.491 87.2383 141.809 87.2383Q143.152 87.2383 144.04 87.5898Q144.929 87.9414 145.447 88.5811Q145.969 89.2207 146.189 90.0996Q146.409 90.9785 146.409 92.0576L146.409 98L143.43 98L143.43 92.4189Q143.43 90.9785 143.049 90.3828Q142.668 89.7822 141.628 89.7822Q141.311 89.7822 140.95 89.8115Q140.588 89.8408 140.31 89.8799L140.31 98L137.331 98L137.331 87.8389Z" fill="#FFFFFF" fill-opacity="1.000000" fill-rule="evenodd"/>
		</g>
	</g>
</svg>
