<svg width="72.000000" height="106.000000" viewBox="0 0 72 106" fill="none" xmlns="http://www.w3.org/2000/svg" xmlns:xlink="http://www.w3.org/1999/xlink">
	<desc>
			Created with Pixso.
	</desc>
	<defs>
		<clipPath id="clip11_758">
			<rect id="ic-painting" width="52.000000" height="52.000000" transform="translate(10.000000 0.000000)" fill="white" fill-opacity="0"/>
		</clipPath>
		<clipPath id="clip11_757">
			<rect id="inner" width="72.000000" height="106.000000" fill="white" fill-opacity="0"/>
		</clipPath>
	</defs>
	<g clip-path="url(#clip11_757)">
		<g clip-path="url(#clip11_758)">
			<path id="Vector" d="M52.8594 4.57031C52.8594 2.05078 50.8086 0 48.2891 0L17.8203 0C15.3008 0 13.25 2.05078 13.25 4.57031L13.25 13.7109C13.25 16.2305 15.3008 18.2812 17.8203 18.2812L48.2891 18.2812C50.8086 18.2812 52.8594 16.2305 52.8594 13.7109L52.8594 12.1875L54.3828 12.1875C55.2227 12.1875 55.9062 12.8711 55.9062 13.7109L55.9062 19.8047C55.9062 20.6445 55.2227 21.3281 54.3828 21.3281L36.1016 21.3281C33.582 21.3281 31.5312 23.3789 31.5312 25.8984L31.5312 30.4688L30.0078 30.4688C29.166 30.4688 28.4844 31.1504 28.4844 31.9922L28.4844 38.0039L26.9609 44.1953C25.9707 48.1582 28.9639 52 33.0547 52C37.1475 52 40.1377 48.1523 39.1504 44.2012L37.625 38.0039L37.625 31.9922C37.625 31.1504 36.9434 30.4688 36.1016 30.4688L34.5781 30.4688L34.5781 25.8984C34.5781 25.0586 35.2617 24.375 36.1016 24.375L54.3828 24.375C56.9023 24.375 58.9531 22.3242 58.9531 19.8047L58.9531 13.7109C58.9531 11.1914 56.9023 9.14062 54.3828 9.14062L52.8594 9.14062L52.8594 4.57031ZM34.5781 33.5156L34.5781 36.6641L31.5312 36.6641L31.5312 33.5156L34.5781 33.5156ZM33.0547 48.9531C30.9561 48.9531 29.4043 46.9824 29.918 44.9297L31.2021 39.7109L34.9072 39.7109L36.1924 44.9336C36.7021 46.9746 35.1611 48.9531 33.0547 48.9531ZM17.8203 3.04688L48.2891 3.04688C49.1289 3.04688 49.8125 3.73047 49.8125 4.57031L49.8125 6.09375L45.2422 6.09375C43.7617 6.09375 41.8682 6.64844 39.6758 7.29102C36.7148 8.1582 33.3594 9.14062 30.0078 9.14062C26.7412 9.14062 24.4385 8.18555 22.4062 7.3457C20.8525 6.70117 19.3857 6.09375 17.8203 6.09375L16.2969 6.09375L16.2969 4.57031C16.2969 3.73047 16.9805 3.04688 17.8203 3.04688ZM49.8125 13.7109C49.8125 14.5508 49.1289 15.2344 48.2891 15.2344L17.8203 15.2344C16.9805 15.2344 16.2969 14.5508 16.2969 13.7109L16.2969 9.14062L17.8203 9.14062C18.7793 9.14062 19.8652 9.58984 21.2402 10.1602C23.4209 11.0625 26.1348 12.1875 30.0078 12.1875C33.7959 12.1875 37.5312 11.0938 40.5322 10.2148C42.418 9.66211 44.1992 9.14062 45.2422 9.14062L49.8125 9.14062L49.8125 13.7109Z" fill="#FF5A30" fill-opacity="1.000000" fill-rule="nonzero"/>
		</g>
		<path id="Repairs" d="M5.86918 83.9814Q8.9893 83.9814 10.6495 85.0898Q12.3096 86.1982 12.3096 88.542Q12.3096 90.002 11.6407 90.9102Q10.9717 91.8184 9.71196 92.3408Q10.1319 92.8584 10.5909 93.5322Q11.0498 94.2012 11.4991 94.9336Q11.9483 95.6611 12.3682 96.4521Q12.7881 97.2383 13.1495 98L9.64848 98Q9.26762 97.3213 8.877 96.623Q8.49125 95.9199 8.0811 95.2607Q7.67094 94.6016 7.27055 94.0107Q6.87016 93.4199 6.46977 92.9414L4.93168 92.9414L4.93168 98L1.81157 98L1.81157 84.3379Q2.83207 84.1377 3.92094 84.0596Q5.00981 83.9814 5.86918 83.9814ZM6.04985 86.6377Q5.70805 86.6377 5.4395 86.6621Q5.17094 86.6816 4.93168 86.7012L4.93168 90.4609L5.81059 90.4609Q7.5684 90.4609 8.33012 90.0215Q9.09184 89.582 9.09184 88.5176Q9.09184 87.502 8.32035 87.0723Q7.54887 86.6377 6.04985 86.6377ZM13.9484 92.8193Q13.9484 91.418 14.3781 90.3682Q14.8078 89.3184 15.5061 88.6201Q16.2092 87.9219 17.1174 87.5605Q18.0305 87.1992 18.9924 87.1992Q21.2287 87.1992 22.5275 88.5713Q23.8313 89.9385 23.8313 92.5996Q23.8313 92.8584 23.8117 93.1709Q23.7922 93.4785 23.7678 93.7178L17.01 93.7178Q17.1076 94.6406 17.8693 95.1826Q18.6311 95.7197 19.9104 95.7197Q20.7307 95.7197 21.5168 95.5732Q22.3078 95.4219 22.8107 95.2021L23.2111 97.6191Q22.9719 97.7412 22.5715 97.8633Q22.1711 97.9805 21.6779 98.0684Q21.1897 98.1611 20.6281 98.2197Q20.0715 98.2783 19.51 98.2783Q18.0891 98.2783 17.0393 97.8584Q15.9895 97.4385 15.2961 96.7109Q14.6076 95.9785 14.2756 94.9824Q13.9484 93.9814 13.9484 92.8193ZM20.9504 91.6816Q20.9309 91.3008 20.8186 90.9395Q20.7111 90.5781 20.4816 90.2998Q20.2522 90.0215 19.9006 89.8408Q19.549 89.6602 19.0314 89.6602Q18.5285 89.6602 18.1672 89.8311Q17.8107 90.002 17.5715 90.2803Q17.3322 90.5586 17.2004 90.9297Q17.0686 91.3008 17.01 91.6816L20.9504 91.6816ZM32.8697 92.8193Q32.8697 91.4424 32.2495 90.6123Q31.6294 89.7822 30.4087 89.7822Q30.0083 89.7822 29.6665 89.8115Q29.3296 89.8408 29.1099 89.8799L29.1099 95.2607Q29.3882 95.4414 29.8374 95.5635Q30.2915 95.6807 30.7505 95.6807Q32.8697 95.6807 32.8697 92.8193ZM35.9116 92.7412Q35.9116 93.9619 35.6089 94.9629Q35.3111 95.959 34.73 96.6816Q34.1489 97.3994 33.2896 97.7998Q32.4302 98.2002 31.312 98.2002Q30.6919 98.2002 30.1499 98.0781Q29.6079 97.9609 29.1099 97.7412L29.1099 101.701L26.1314 101.701L26.1314 87.8389Q26.5318 87.7217 27.0493 87.6143Q27.5718 87.502 28.1382 87.4238Q28.7095 87.3408 29.3003 87.292Q29.8911 87.2383 30.4282 87.2383Q31.732 87.2383 32.7476 87.6289Q33.7681 88.0195 34.4663 88.7324Q35.1695 89.4404 35.5406 90.4609Q35.9116 91.4814 35.9116 92.7412ZM42.2299 95.9199Q42.6694 95.9199 43.0698 95.9004Q43.4702 95.8809 43.7094 95.8418L43.7094 93.5811Q43.5288 93.542 43.1674 93.5029Q42.811 93.459 42.5082 93.459Q42.0883 93.459 41.7172 93.5127Q41.351 93.5615 41.0678 93.7031Q40.7895 93.8398 40.6284 94.0791Q40.4721 94.3184 40.4721 94.6797Q40.4721 95.3779 40.9409 95.6514Q41.4096 95.9199 42.2299 95.9199ZM41.9907 87.1992Q43.309 87.1992 44.1879 87.502Q45.0717 87.7998 45.5991 88.3613Q46.1313 88.918 46.351 89.7188Q46.5707 90.5195 46.5707 91.501L46.5707 97.7021Q45.9311 97.8389 44.7885 98.0293Q43.6508 98.2197 42.0297 98.2197Q41.0092 98.2197 40.1791 98.0391Q39.3491 97.8584 38.7485 97.4482Q38.1479 97.0381 37.8256 96.3789Q37.5082 95.7197 37.5082 94.7578Q37.5082 93.8398 37.8793 93.2002Q38.2504 92.5605 38.8705 92.1797Q39.4907 91.7988 40.2914 91.6328Q41.0922 91.4619 41.9516 91.4619Q42.5278 91.4619 42.977 91.5107Q43.4311 91.5596 43.7094 91.6377L43.7094 91.3594Q43.7094 90.5977 43.2504 90.1387Q42.7914 89.6797 41.6489 89.6797Q40.892 89.6797 40.1498 89.792Q39.4077 89.8994 38.8705 90.0996L38.4897 87.7021Q38.7485 87.6191 39.1391 87.5312Q39.5297 87.4385 39.9887 87.3701Q40.4477 87.3018 40.9555 87.2529Q41.4682 87.1992 41.9907 87.1992ZM52.2499 98L49.2714 98L49.2714 87.4824L52.2499 87.4824L52.2499 98ZM52.5282 84.4404Q52.5282 85.2607 51.996 85.7295Q51.4686 86.1982 50.7509 86.1982Q50.0282 86.1982 49.496 85.7295Q48.9686 85.2607 48.9686 84.4404Q48.9686 83.6201 49.496 83.1514Q50.0282 82.6777 50.7509 82.6777Q51.4686 82.6777 51.996 83.1514Q52.5282 83.6201 52.5282 84.4404ZM61.3893 90.1191Q60.9889 90.0215 60.4469 89.9141Q59.9098 89.8018 59.2896 89.8018Q59.0113 89.8018 58.6207 89.8506Q58.2301 89.8994 58.0299 89.958L58.0299 98L55.0514 98L55.0514 88.0391Q55.8521 87.7607 56.941 87.5117Q58.0299 87.2578 59.3678 87.2578Q59.6119 87.2578 59.9488 87.292Q60.2906 87.3213 60.6275 87.3701Q60.9693 87.4189 61.3062 87.4922Q61.648 87.5605 61.8922 87.6582L61.3893 90.1191ZM66.5089 95.8613Q67.3293 95.8613 67.6662 95.7002Q68.008 95.5391 68.008 95.0801Q68.008 94.7188 67.5685 94.4502Q67.1291 94.1816 66.2306 93.8398Q65.5324 93.5811 64.9611 93.3027Q64.3898 93.0195 63.9894 92.6289Q63.589 92.2383 63.3693 91.7012Q63.1496 91.1592 63.1496 90.4023Q63.1496 88.918 64.2482 88.0586Q65.3517 87.1992 67.2707 87.1992Q68.2277 87.1992 69.1066 87.3701Q69.9904 87.541 70.508 87.7412L69.9904 90.0605Q69.4679 89.8799 68.8576 89.7432Q68.2521 89.6016 67.4904 89.6016Q66.089 89.6016 66.089 90.3779Q66.089 90.5586 66.1476 90.7002Q66.2111 90.8418 66.3918 90.9736Q66.5724 91.1006 66.88 91.252Q67.1877 91.3984 67.6711 91.5791Q68.6476 91.9404 69.2873 92.292Q69.9318 92.6387 70.298 93.0488Q70.6691 93.459 70.8205 93.9619Q70.9718 94.46 70.9718 95.1191Q70.9718 96.6816 69.8 97.4824Q68.6281 98.2783 66.4894 98.2783Q65.088 98.2783 64.1554 98.0391Q63.2277 97.7998 62.8712 97.6387L63.3693 95.2217Q64.131 95.5195 64.9269 95.6904Q65.7277 95.8613 66.5089 95.8613Z" fill="#1E212C" fill-opacity="1.000000" fill-rule="evenodd"/>
	</g>
</svg>
