<svg width="133.000000" height="114.000000" viewBox="0 0 133 114" fill="none" xmlns="http://www.w3.org/2000/svg" xmlns:xlink="http://www.w3.org/1999/xlink">
	<desc>
			Created with Pixso.
	</desc>
	<defs>
		<filter id="filter_11_769_dd" x="0.000000" y="0.000000" width="133.000000" height="114.000000" filterUnits="userSpaceOnUse" color-interpolation-filters="sRGB">
			<feFlood flood-opacity="0" result="BackgroundImageFix"/>
			<feColorMatrix in="SourceAlpha" type="matrix" values="0 0 0 0 0 0 0 0 0 0 0 0 0 0 0 0 0 0 127 0" result="hardAlpha"/>
			<feOffset dx="0" dy="4"/>
			<feGaussianBlur stdDeviation="1.33333"/>
			<feComposite in2="hardAlpha" operator="out" k2="-1" k3="1"/>
			<feColorMatrix type="matrix" values="0 0 0 0 0 0 0 0 0 0 0 0 0 0 0 0 0 0 0.25 0"/>
			<feBlend mode="normal" in2="BackgroundImageFix" result="effect_dropShadow_1"/>
			<feBlend mode="normal" in="SourceGraphic" in2="effect_dropShadow_1" result="shape"/>
		</filter>
		<clipPath id="clip11_767">
			<rect id="ic-construction" width="52.000000" height="52.000000" transform="translate(40.500000 0.000000)" fill="white" fill-opacity="0"/>
		</clipPath>
		<clipPath id="clip11_769">
			<rect id="inner" width="125.000000" height="106.000000" transform="translate(4.000000 0.000000)" fill="white" fill-opacity="0"/>
		</clipPath>
	</defs>
	<g filter="url(#filter_11_769_dd)">
		<g clip-path="url(#clip11_769)">
			<g clip-path="url(#clip11_767)">
				<path id="Vector" d="M90.9766 27.5234C91.8184 27.5234 92.5 26.8418 92.5 26L92.5 14.625C92.5 13.7832 91.8184 13.1016 90.9766 13.1016C89.915 13.1016 69.168 13.1016 68.0234 13.1016L68.0234 3.25C68.0234 2.4082 67.3418 1.72656 66.5 1.72656L50.25 1.72656C49.4082 1.72656 48.7266 2.4082 48.7266 3.25L48.7266 13.1016L42.0234 13.1016C41.1816 13.1016 40.5 13.7832 40.5 14.625L40.5 26C40.5 26.8418 41.1816 27.5234 42.0234 27.5234L48.7266 27.5234L48.7266 35.8516L42.0234 35.8516C41.1816 35.8516 40.5 36.5332 40.5 37.375L40.5 48.75C40.5 49.5918 41.1816 50.2734 42.0234 50.2734L90.9766 50.2734C91.8184 50.2734 92.5 49.5918 92.5 48.75L92.5 37.375C92.5 36.5332 91.8184 35.8516 90.9766 35.8516L84.2734 35.8516L84.2734 27.5234L90.9766 27.5234ZM89.4531 24.4766C87.8232 24.4766 77.7598 24.4766 76.1484 24.4766L76.1484 16.1484L89.4531 16.1484L89.4531 24.4766ZM73.1016 24.4766C71.5059 24.4766 61.5049 24.4766 59.8984 24.4766L59.8984 16.1484L73.1016 16.1484L73.1016 24.4766ZM51.7734 4.77344L64.9766 4.77344L64.9766 13.1016C63.3809 13.1016 53.3799 13.1016 51.7734 13.1016L51.7734 4.77344ZM43.5469 24.4766L43.5469 16.1484L56.8516 16.1484L56.8516 24.4766C55.2393 24.4766 45.1768 24.4766 43.5469 24.4766ZM51.7734 27.5234L64.9766 27.5234L64.9766 35.8516C63.3809 35.8516 53.3799 35.8516 51.7734 35.8516L51.7734 27.5234ZM43.5469 38.8984L56.8516 38.8984L56.8516 47.2266L43.5469 47.2266L43.5469 38.8984ZM59.8984 38.8984L73.1016 38.8984L73.1016 47.2266L59.8984 47.2266L59.8984 38.8984ZM89.4531 38.8984L89.4531 47.2266L76.1484 47.2266L76.1484 38.8984L89.4531 38.8984ZM81.2266 35.8516C79.6309 35.8516 69.6299 35.8516 68.0234 35.8516L68.0234 27.5234L81.2266 27.5234L81.2266 35.8516Z" fill="#FF5A30" fill-opacity="1.000000" fill-rule="nonzero"/>
			</g>
			<path id="Construction" d="M12.4099 98.2783Q9.03102 98.2783 7.25856 96.3984Q5.49098 94.5186 5.49098 91.0615Q5.49098 89.3379 6.02809 87.9902Q6.57008 86.6377 7.50758 85.71Q8.44996 84.7822 9.74879 84.3037Q11.0476 83.8203 12.5711 83.8203Q13.45 83.8203 14.1677 83.9521Q14.8904 84.0791 15.4275 84.25Q15.9695 84.4209 16.3308 84.6016Q16.6922 84.7822 16.8484 84.8799L15.95 87.3994Q15.3103 87.0576 14.4607 86.8184Q13.6111 86.5791 12.532 86.5791Q11.8093 86.5791 11.1209 86.8184Q10.4324 87.0576 9.90016 87.5898Q9.36793 88.1221 9.04567 88.9619Q8.72828 89.8018 8.72828 90.998Q8.72828 91.96 8.93824 92.79Q9.1482 93.6201 9.61695 94.2207Q10.0906 94.8213 10.8474 95.1729Q11.6091 95.5195 12.6882 95.5195Q13.3718 95.5195 13.9089 95.4414Q14.4509 95.3584 14.8709 95.251Q15.2908 95.1387 15.6082 95.002Q15.9304 94.8604 16.1892 94.7383L17.0486 97.2383Q16.3894 97.6387 15.1882 97.9609Q13.992 98.2783 12.4099 98.2783ZM28.4502 92.7217Q28.4502 93.9619 28.0889 94.9922Q27.7276 96.0176 27.0489 96.75Q26.3702 97.4824 25.418 97.8828Q24.4707 98.2783 23.2891 98.2783Q22.1319 98.2783 21.1797 97.8828Q20.2276 97.4824 19.5489 96.75Q18.8702 96.0176 18.4893 94.9922Q18.1084 93.9619 18.1084 92.7217Q18.1084 91.4814 18.4991 90.4609Q18.8897 89.4404 19.5782 88.7227Q20.2715 88 21.2188 87.5996Q22.1709 87.1992 23.2891 87.1992Q24.4317 87.1992 25.3789 87.5996Q26.3311 88 27.0098 88.7227Q27.6885 89.4404 28.0694 90.4609Q28.4502 91.4814 28.4502 92.7217ZM25.4082 92.7217Q25.4082 91.3398 24.8565 90.5488Q24.3096 89.7578 23.2891 89.7578Q22.2686 89.7578 21.7071 90.5488Q21.1504 91.3398 21.1504 92.7217Q21.1504 94.0986 21.7071 94.9092Q22.2686 95.7197 23.2891 95.7197Q24.3096 95.7197 24.8565 94.9092Q25.4082 94.0986 25.4082 92.7217ZM30.7514 87.8389Q31.5082 87.6191 32.7094 87.4287Q33.9105 87.2383 35.2289 87.2383Q36.5717 87.2383 37.4604 87.5898Q38.349 87.9414 38.8666 88.5811Q39.3891 89.2207 39.6088 90.0996Q39.8285 90.9785 39.8285 92.0576L39.8285 98L36.85 98L36.85 92.4189Q36.85 90.9785 36.4691 90.3828Q36.0883 89.7822 35.0482 89.7822Q34.7309 89.7822 34.3695 89.8115Q34.0082 89.8408 33.7299 89.8799L33.7299 98L30.7514 98L30.7514 87.8389ZM45.5489 95.8613Q46.3693 95.8613 46.7062 95.7002Q47.048 95.5391 47.048 95.0801Q47.048 94.7188 46.6085 94.4502Q46.1691 94.1816 45.2706 93.8398Q44.5724 93.5811 44.0011 93.3027Q43.4298 93.0195 43.0294 92.6289Q42.629 92.2383 42.4093 91.7012Q42.1896 91.1592 42.1896 90.4023Q42.1896 88.918 43.2882 88.0586Q44.3917 87.1992 46.3107 87.1992Q47.2677 87.1992 48.1466 87.3701Q49.0304 87.541 49.548 87.7412L49.0304 90.0605Q48.5079 89.8799 47.8976 89.7432Q47.2921 89.6016 46.5304 89.6016Q45.129 89.6016 45.129 90.3779Q45.129 90.5586 45.1876 90.7002Q45.2511 90.8418 45.4318 90.9736Q45.6124 91.1006 45.92 91.252Q46.2277 91.3984 46.7111 91.5791Q47.6876 91.9404 48.3273 92.292Q48.9718 92.6387 49.338 93.0488Q49.7091 93.459 49.8605 93.9619Q50.0118 94.46 50.0118 95.1191Q50.0118 96.6816 48.84 97.4824Q47.6681 98.2783 45.5294 98.2783Q44.128 98.2783 43.1954 98.0391Q42.2677 97.7998 41.9113 97.6387L42.4093 95.2217Q43.171 95.5195 43.9669 95.6904Q44.7677 95.8613 45.5489 95.8613ZM52.1288 84.8604L55.1122 84.3818L55.1122 87.4824L58.6913 87.4824L58.6913 89.958L55.1122 89.958L55.1122 93.6592Q55.1122 94.6016 55.4394 95.1631Q55.7714 95.7197 56.7724 95.7197Q57.2509 95.7197 57.7587 95.6318Q58.2714 95.5391 58.6913 95.3779L59.1113 97.7021Q58.5693 97.9219 57.9101 98.0781Q57.2509 98.2393 56.289 98.2393Q55.0683 98.2393 54.2675 97.9121Q53.4716 97.5801 52.9882 96.9893Q52.5097 96.3984 52.3193 95.5586Q52.1288 94.7188 52.1288 93.6982L52.1288 84.8604ZM67.4493 90.1191Q67.0489 90.0215 66.5069 89.9141Q65.9698 89.8018 65.3497 89.8018Q65.0713 89.8018 64.6807 89.8506Q64.2901 89.8994 64.0899 89.958L64.0899 98L61.1114 98L61.1114 88.0391Q61.9122 87.7607 63.001 87.5117Q64.0899 87.2578 65.4278 87.2578Q65.6719 87.2578 66.0088 87.292Q66.3506 87.3213 66.6875 87.3701Q67.0293 87.4189 67.3663 87.4922Q67.7081 87.5605 67.9522 87.6582L67.4493 90.1191ZM78.5309 97.6387Q77.7691 97.8584 76.568 98.0488Q75.3717 98.2393 74.0484 98.2393Q72.7105 98.2393 71.817 97.8828Q70.9283 97.5215 70.4059 96.8721Q69.8883 96.2178 69.6686 95.3193Q69.4488 94.4209 69.4488 93.3418L69.4488 87.4824L72.4322 87.4824L72.4322 92.9805Q72.4322 94.4209 72.8082 95.0605Q73.1891 95.7002 74.2291 95.7002Q74.5514 95.7002 74.9078 95.6709Q75.2691 95.6416 75.5523 95.5977L75.5523 87.4824L78.5309 87.4824L78.5309 97.6387ZM80.8284 92.7412Q80.8284 91.5986 81.1995 90.5928Q81.5706 89.582 82.2689 88.8301Q82.972 88.0781 83.9681 87.6387Q84.9691 87.1992 86.2484 87.1992Q87.0882 87.1992 87.7865 87.3506Q88.4896 87.502 89.1488 87.7803L88.5286 90.1582Q88.1087 90.002 87.6058 89.8799Q87.1077 89.7578 86.4876 89.7578Q85.1693 89.7578 84.5199 90.5781Q83.8704 91.3984 83.8704 92.7412Q83.8704 94.1621 84.4808 94.9434Q85.0911 95.7197 86.6097 95.7197Q87.1517 95.7197 87.7718 95.6221Q88.3919 95.5195 88.9095 95.2998L89.3294 97.7412Q88.8118 97.9609 88.0306 98.1172Q87.2493 98.2783 86.3118 98.2783Q84.8714 98.2783 83.8314 97.8486Q82.7913 97.4189 82.1175 96.6816Q81.4486 95.9395 81.1361 94.9287Q80.8284 93.918 80.8284 92.7412ZM91.2288 84.8604L94.2122 84.3818L94.2122 87.4824L97.7913 87.4824L97.7913 89.958L94.2122 89.958L94.2122 93.6592Q94.2122 94.6016 94.5394 95.1631Q94.8714 95.7197 95.8724 95.7197Q96.3509 95.7197 96.8587 95.6318Q97.3714 95.5391 97.7913 95.3779L98.2113 97.7021Q97.6693 97.9219 97.0101 98.0781Q96.3509 98.2393 95.389 98.2393Q94.1683 98.2393 93.3675 97.9121Q92.5716 97.5801 92.0882 96.9893Q91.6097 96.3984 91.4193 95.5586Q91.2288 94.7188 91.2288 93.6982L91.2288 84.8604ZM103.19 98L100.211 98L100.211 87.4824L103.19 87.4824L103.19 98ZM103.468 84.4404Q103.468 85.2607 102.936 85.7295Q102.409 86.1982 101.691 86.1982Q100.968 86.1982 100.436 85.7295Q99.9086 85.2607 99.9086 84.4404Q99.9086 83.6201 100.436 83.1514Q100.968 82.6777 101.691 82.6777Q102.409 82.6777 102.936 83.1514Q103.468 83.6201 103.468 84.4404ZM115.83 92.7217Q115.83 93.9619 115.469 94.9922Q115.108 96.0176 114.429 96.75Q113.75 97.4824 112.798 97.8828Q111.851 98.2783 110.669 98.2783Q109.512 98.2783 108.56 97.8828Q107.608 97.4824 106.929 96.75Q106.25 96.0176 105.869 94.9922Q105.488 93.9619 105.488 92.7217Q105.488 91.4814 105.879 90.4609Q106.27 89.4404 106.958 88.7227Q107.652 88 108.599 87.5996Q109.551 87.1992 110.669 87.1992Q111.812 87.1992 112.759 87.5996Q113.711 88 114.39 88.7227Q115.069 89.4404 115.449 90.4609Q115.83 91.4814 115.83 92.7217ZM112.788 92.7217Q112.788 91.3398 112.236 90.5488Q111.69 89.7578 110.669 89.7578Q109.649 89.7578 109.087 90.5488Q108.53 91.3398 108.53 92.7217Q108.53 94.0986 109.087 94.9092Q109.649 95.7197 110.669 95.7197Q111.69 95.7197 112.236 94.9092Q112.788 94.0986 112.788 92.7217ZM118.131 87.8389Q118.888 87.6191 120.089 87.4287Q121.291 87.2383 122.609 87.2383Q123.952 87.2383 124.84 87.5898Q125.729 87.9414 126.247 88.5811Q126.769 89.2207 126.989 90.0996Q127.209 90.9785 127.209 92.0576L127.209 98L124.23 98L124.23 92.4189Q124.23 90.9785 123.849 90.3828Q123.468 89.7822 122.428 89.7822Q122.111 89.7822 121.75 89.8115Q121.388 89.8408 121.11 89.8799L121.11 98L118.131 98L118.131 87.8389Z" fill="#1E212C" fill-opacity="1.000000" fill-rule="evenodd"/>
		</g>
	</g>
</svg>
