<svg width="40.000000" height="40.000000" viewBox="0 0 40 40" fill="none" xmlns="http://www.w3.org/2000/svg" xmlns:xlink="http://www.w3.org/1999/xlink">
	<desc>
			Created with Pixso.
	</desc>
	<defs/>
	<path d="M14.166 4.86914C12.7852 4.86914 11.666 5.98828 11.666 7.36914L11.666 32.6299C11.666 34.0107 12.7852 35.1299 14.166 35.1299L25.833 35.1299C27.2139 35.1299 28.333 34.0107 28.333 32.6299L28.333 7.36914C28.333 5.98828 27.2139 4.86914 25.833 4.86914L25.6943 4.86914L25.2881 5.84375C25.0293 6.46484 24.4229 6.86914 23.75 6.86914L16.25 6.86914C15.5771 6.86914 14.9697 6.46484 14.7109 5.84375L14.3057 4.86914L14.166 4.86914ZM8.33301 7.36914C8.33301 4.14746 10.9443 1.53613 14.166 1.53613L25.833 1.53613C29.0547 1.53613 31.666 4.14746 31.666 7.36914L31.666 32.6299C31.666 35.8516 29.0547 38.4629 25.833 38.4629L14.166 38.4629C10.9443 38.4629 8.33301 35.8516 8.33301 32.6299L8.33301 7.36914Z" fill="#FF5A30" fill-opacity="1.000000" fill-rule="evenodd"/>
</svg>
