<svg width="16.000000" height="16.000000" viewBox="0 0 16 16" fill="none" xmlns="http://www.w3.org/2000/svg" xmlns:xlink="http://www.w3.org/1999/xlink">
	<desc>
			Created with Pixso.
	</desc>
	<defs/>
	<path d="M7.33 1.33C5.63 1.33 4.07 1.85 2.92 2.74C1.76 3.62 1 4.88 1 6.33C1 7.01 1.17 7.66 1.47 8.25C1.47 8.27 1.47 8.31 1.47 8.36C1.45 8.51 1.42 8.71 1.37 8.95C1.26 9.42 1.09 9.96 0.95 10.39C0.68 11.21 1.49 11.97 2.28 11.66C2.74 11.48 3.35 11.26 3.88 11.1C4.15 11.03 4.39 10.97 4.58 10.94C4.7 10.92 4.77 10.92 4.79 10.92C4.8 10.92 4.8 10.92 4.8 10.92C5.58 11.18 6.43 11.33 7.33 11.33C9.03 11.33 10.59 10.8 11.74 9.92C12.89 9.04 13.66 7.78 13.66 6.33C13.66 4.88 12.89 3.62 11.74 2.74C10.59 1.85 9.03 1.33 7.33 1.33ZM2.33 6.33C2.33 5.38 2.83 4.48 3.73 3.79C4.62 3.11 5.9 2.66 7.33 2.66C8.76 2.66 10.03 3.11 10.93 3.79C11.83 4.48 12.33 5.38 12.33 6.33C12.33 7.27 11.83 8.18 10.93 8.86C10.03 9.55 8.76 10 7.33 10C6.57 10 5.85 9.87 5.21 9.65C4.93 9.55 4.6 9.59 4.37 9.62C4.1 9.66 3.8 9.74 3.51 9.83C3.15 9.93 2.76 10.06 2.41 10.19C2.5 9.88 2.59 9.55 2.66 9.25C2.72 8.98 2.78 8.72 2.8 8.48C2.81 8.36 2.81 8.24 2.8 8.12C2.79 8 2.77 7.84 2.68 7.68C2.45 7.25 2.33 6.8 2.33 6.33ZM13.96 8.9C14.29 8.32 14.52 7.7 14.61 7.04C15.06 7.7 15.33 8.48 15.33 9.33C15.33 10.08 15.11 10.79 14.74 11.41C14.73 11.42 14.73 11.45 14.73 11.5C14.72 11.6 14.72 11.74 14.73 11.91C14.75 12.25 14.81 12.64 14.87 12.96C15 13.7 14.29 14.34 13.56 14.11C13.21 14 12.77 13.87 12.37 13.78C12.17 13.73 12 13.7 11.87 13.69C11.78 13.68 11.74 13.68 11.72 13.68L11.72 13.68L11.71 13.68C11.08 13.89 10.38 14 9.66 14C7.81 14 6.08 13.25 5.03 12.03C5.75 12.22 6.53 12.33 7.33 12.33C7.47 12.33 7.6 12.33 7.74 12.32C8.31 12.54 8.96 12.66 9.66 12.66C10.25 12.66 10.82 12.57 11.33 12.41C11.56 12.33 11.82 12.34 12 12.36C12.21 12.38 12.44 12.43 12.66 12.48C12.93 12.54 13.22 12.61 13.48 12.69C13.44 12.46 13.42 12.23 13.4 12C13.39 11.79 13.38 11.58 13.4 11.39C13.41 11.22 13.45 10.97 13.58 10.75C13.85 10.31 14 9.83 14 9.33C14 9.18 13.98 9.04 13.96 8.9Z" fill="#787A80" fill-opacity="1.000000" fill-rule="evenodd"/>
</svg>
