<svg width="20.000000" height="20.000000" viewBox="0 0 20 20" fill="none" xmlns="http://www.w3.org/2000/svg" xmlns:xlink="http://www.w3.org/1999/xlink">
	<desc>
			Created with Pixso.
	</desc>
	<defs>
		<clipPath id="clip8_800">
			<rect width="20.000000" height="20.000000" fill="white" fill-opacity="0"/>
		</clipPath>
	</defs>
	<g clip-path="url(#clip8_800)">
		<path d="M16.084 4.41602C16.417 4.08203 16.917 4.08203 17.25 4.41602C17.584 4.75 17.584 5.25 17.25 5.58203L5.58398 17.25C5.25 17.582 4.75 17.582 4.41699 17.25C4.08398 16.916 4.08398 16.416 4.41699 16.082L7.16699 13.332L6.66699 13.332C5.75 13.332 5 12.582 5 11.666L5 8.33203C5 7.41602 5.75 6.66602 6.66699 6.66602L8.58398 6.66602C9 6.66602 9.33398 6.5 9.66699 6.33203L12 4.41602C12.5 4 13.334 4.41602 13.334 5.08203L13.334 7.16602L16.084 4.41602ZM13.334 14.916C13.334 15.666 12.584 16 12 15.582L10.25 14.25L13.334 11.166L13.334 14.916Z" fill="#FFFFFF" fill-opacity="1.000000" fill-rule="evenodd"/>
	</g>
</svg>
