<svg width="20.000000" height="20.000000" viewBox="0 0 20 20" fill="none" xmlns="http://www.w3.org/2000/svg" xmlns:xlink="http://www.w3.org/1999/xlink">
	<desc>
			Created with Pixso.
	</desc>
	<defs/>
	<path id="WhatsApp" d="M20 9.74C20 15.12 15.6 19.48 10.18 19.48C8.45 19.48 6.84 19.04 5.43 18.27L0 20L1.77 14.77C0.87 13.3 0.36 11.58 0.36 9.74C0.36 4.36 4.75 0 10.18 0C15.6 0 20 4.36 20 9.74ZM10.18 1.55C5.62 1.55 1.92 5.22 1.92 9.74C1.92 11.53 2.51 13.19 3.5 14.54L2.46 17.58L5.64 16.57C6.94 17.43 8.5 17.93 10.18 17.93C14.73 17.93 18.43 14.25 18.43 9.74C18.43 5.22 14.73 1.55 10.18 1.55ZM15.13 11.98C15.07 11.88 14.91 11.82 14.67 11.7C14.43 11.58 13.25 11 13.03 10.93C12.81 10.85 12.65 10.81 12.49 11.05C12.33 11.28 11.87 11.82 11.73 11.98C11.58 12.14 11.44 12.16 11.2 12.04C10.96 11.92 10.19 11.67 9.27 10.86C8.55 10.22 8.07 9.44 7.93 9.2C7.79 8.96 7.91 8.83 8.04 8.72C8.14 8.61 8.28 8.44 8.4 8.3C8.52 8.16 8.56 8.06 8.64 7.9C8.72 7.74 8.68 7.6 8.62 7.48C8.56 7.36 8.08 6.19 7.87 5.71C7.67 5.23 7.47 5.31 7.33 5.31C7.19 5.31 7.03 5.29 6.87 5.29C6.71 5.29 6.45 5.35 6.23 5.59C6.01 5.83 5.39 6.41 5.39 7.58C5.39 8.75 6.25 9.89 6.37 10.05C6.49 10.21 8.04 12.7 10.48 13.66C12.93 14.61 12.93 14.29 13.37 14.25C13.81 14.21 14.79 13.67 15 13.12C15.19 12.56 15.19 12.08 15.13 11.98Z" fill="#FFFFFF" fill-opacity="1.000000" fill-rule="nonzero"/>
</svg>
